<?xml version="1.0" standalone="no"?>
<!DOCTYPE svg PUBLIC "-//W3C//DTD SVG 1.1//EN" "http://www.w3.org/Graphics/SVG/1.1/DTD/svg11.dtd" >
<svg xmlns="http://www.w3.org/2000/svg">
<metadata>
This is a custom SVG webfont generated by Font Squirrel.
Copyright   : Copyright c 2011 by Fontsmith Ltd All rights reserved
Designer    : JSmith FMello PGarnham
Foundry     : Fontsmith Ltd
Foundry URL : httpwwwfontsmithcom
</metadata>
<defs>
<font id="BankiaMedium" horiz-adv-x="1085" >
<font-face units-per-em="2048" ascent="1536" descent="-512" />
<missing-glyph horiz-adv-x="458" />
<glyph unicode=" "  horiz-adv-x="458" />
<glyph unicode="&#x09;" horiz-adv-x="458" />
<glyph unicode="&#xa0;" horiz-adv-x="458" />
<glyph unicode="!" horiz-adv-x="442" d="M102 90v27q0 53 32 80.5t81 27.5h14q111 0 111 -108v-27q0 -109 -111 -108h-14q-113 -1 -113 108zM113 1286q-2 35 10 46t49 11h107q37 0 48 -12t9 -45l-27 -897q0 -31 -14 -41t-47 -10h-53q-31 0 -43.5 9t-14.5 40z" />
<glyph unicode="&#x22;" horiz-adv-x="780" d="M90 1397q-4 43 35 43h141q39 0 35 -43l-20 -451q0 -37 -35 -37h-103q-33 0 -32 37zM479 1397q-4 43 35 43h141q39 0 35 -43l-20 -451q0 -37 -35 -37h-103q-33 0 -32 37z" />
<glyph unicode="#" horiz-adv-x="1282" d="M41 399q0 8 14 70l8 35q6 29 18.5 38t41.5 9h176l47 211h-190q-33 0 -33 18q0 8 14 70l8 35q6 29 18.5 38t41.5 9h178l78 350q6 27 18.5 36t40.5 9h107q41 0 41 -22q0 -18 -13 -68l-67 -305h221l78 350q6 27 18.5 36t40.5 9h107q41 0 41 -22q0 -14 -13 -68l-67 -305h194 q33 0 33 -19q0 -8 -14 -69l-8 -35q-6 -29 -18.5 -38t-41.5 -9h-184l-47 -211h198q33 0 33 -19q0 -8 -14 -69l-8 -35q-6 -29 -18.5 -38t-41.5 -9h-184l-76 -336q-6 -27 -18.5 -36t-40.5 -9h-107q-41 0 -41 23q0 14 13 63l65 295h-223l-74 -336q-6 -27 -18.5 -36t-40.5 -9 h-107q-41 0 -41 23q0 10 13 63l65 295h-188q-33 0 -33 18zM502 551h223l47 211h-223z" />
<glyph unicode="$" d="M127 76q0 18 6 43l17 63q6 25 26 25q10 0 33 -8q135 -47 268 -56v465l-43 10q-164 39 -233.5 115t-69.5 228v32q0 324 361 348v158q0 29 30 29h62q31 0 30 -29v-158q137 -6 248 -41q35 -12 35 -30q0 -10 -14 -64l-13 -45q-6 -29 -28 -28q-10 0 -27 6q-102 33 -201 41 v-422l41 -8q168 -39 235.5 -113t67.5 -244v-24q0 -193 -85 -282t-273 -101v-156q0 -29 -31 -29h-61q-31 0 -31 29v154q-178 6 -319 57q-31 12 -31 35zM322 969q0 -86 37.5 -123t132.5 -60v392q-170 -20 -170 -189v-20zM600 147q94 10 133 58.5t39 150.5v21q0 96 -32.5 136 t-139.5 67v-433z" />
<glyph unicode="%" horiz-adv-x="1687" d="M123 963v20q0 209 86 295q70 66 194.5 65.5t194.5 -65.5q86 -86 86 -295v-20q0 -209 -86 -293q-68 -68 -195 -68t-194 68q-86 84 -86 293zM303 965q0 -125 22.5 -170t78 -45t78 45t22.5 170v16q0 125 -22.5 170t-78 45t-78 -45t-22.5 -170v-16zM377 2q0 14 22 53 l711 1254q20 35 64 34h106q29 0 29 -20q0 -14 -23 -53l-711 -1254q-20 -35 -63 -34h-106q-29 0 -29 20zM1004 342v20q0 209 86 295q70 66 194.5 66t194.5 -66q86 -86 86 -295v-20q0 -209 -86 -293q-68 -68 -195 -67.5t-194 67.5q-86 84 -86 293zM1184 344q0 -125 22.5 -170 t77.5 -45t77.5 45t22.5 170v16q0 125 -22.5 170t-77.5 45t-77.5 -45t-22.5 -170v-16z" />
<glyph unicode="&#x26;" horiz-adv-x="1243" d="M72 334v31q0 119 67.5 211t186.5 139q-78 66 -122 147.5t-44 155.5v16q0 139 98 224t268 85q168 0 263.5 -82.5t95.5 -216.5v-20q0 -225 -244 -371l274 -270q6 29 7 129v113q0 33 32 32h113q33 0 33 -32v-121q0 -166 -43 -258l145 -142q18 -18 19 -28q0 -12 -39 -51 l-41 -41q-16 -16 -33 -17q-12 0 -33 21l-127 121q-127 -127 -375 -127h-59q-223 0 -332.5 91t-109.5 261zM276 342q0 -98 67 -150.5t192 -52.5h30q182 0 260 88l-397 389q-152 -82 -152 -258v-16zM358 1022q0 -92 140 -231l41 -41q154 104 153 264v10q0 164 -166 164 q-78 0 -123 -39t-45 -115v-12z" />
<glyph unicode="'" horiz-adv-x="391" d="M90 1397q-4 43 35 43h141q39 0 35 -43l-20 -451q0 -37 -35 -37h-103q-33 0 -32 37z" />
<glyph unicode="(" horiz-adv-x="618" d="M115 578q0 434 293 798q20 27 41 27q16 0 45 -19l41 -24q31 -18 30 -37q0 -12 -33 -59q-215 -307 -215 -682q0 -369 213 -686q33 -47 33 -60q0 -18 -31 -37l-40 -24q-29 -18 -46 -19q-20 0 -40 27q-291 371 -291 795z" />
<glyph unicode=")" horiz-adv-x="618" d="M53 1323q0 18 31 37l41 24q29 18 45 19q20 0 41 -27q293 -365 293 -798q0 -424 -291 -795q-20 -27 -41 -27q-16 0 -45 19l-41 24q-31 18 -31 37q0 12 33 60q213 317 213 686q0 375 -215 682q-33 47 -33 59z" />
<glyph unicode="*" horiz-adv-x="753" d="M57 1217q0 6 15 49l20 61q6 20 25 21q12 0 24 -7l181 -88q-27 223 -27 232q0 25 31 24h102q31 0 31 -24q0 -6 -3 -33t-10.5 -84t-13.5 -115l180 88q12 6 25 7q18 0 25 -21l20 -61q14 -43 14 -49q0 -12 -22 -19l-217 -55l164 -162q18 -16 18 -34.5t-18 -28.5l-58 -37 q-35 -23 -51 -23q-14 0 -31 29l-104 194l-105 -194q-16 -29 -30 -29q-16 0 -52 23l-57 37q-18 10 -18 28.5t18 34.5l164 162l-217 55q-23 7 -23 19z" />
<glyph unicode="+" d="M92 489v84q0 47 49 48h308v317q0 29 11 37t44 8h76q33 0 44 -8t11 -37v-317h307q49 0 49 -48v-84q0 -27 -11 -37t-38 -10h-307v-317q0 -29 -11.5 -37t-43.5 -8h-76q-33 0 -44 8t-11 37v317h-308q-27 0 -38 10t-11 37z" />
<glyph unicode="," horiz-adv-x="458" d="M88 -248q0 8 10 23q70 90 88 155q8 31 -12 43l-31 17q-41 23 -41 92v49q0 98 111 98h31q61 0 89.5 -29.5t28.5 -97.5v-18q0 -86 -40 -190q-49 -119 -115 -189q-12 -16 -25 -16q-14 0 -32 12l-44 27q-18 12 -18 24z" />
<glyph unicode="-" horiz-adv-x="645" d="M72 483v92q0 27 10 36.5t37 9.5h407q27 0 37 -9.5t10 -36.5v-92q0 -41 -47 -41h-407q-47 0 -47 41z" />
<glyph unicode="." horiz-adv-x="423" d="M92 90v33q0 53 30 80.5t79 27.5h22q109 0 109 -108v-33q0 -109 -109 -108h-22q-49 0 -79 27.5t-30 80.5z" />
<glyph unicode="/" horiz-adv-x="737" d="M51 -27q0 10 17 62l421 1329q14 43 62 43h92q43 0 43 -23q0 -10 -16 -61l-422 -1329q-14 -43 -62 -43h-92q-43 -1 -43 22z" />
<glyph unicode="0" d="M84 635v55q0 383 119 524q109 129 340 129t340 -129q119 -141 118 -524v-55q0 -383 -118 -524q-109 -129 -340.5 -129t-339.5 129q-119 141 -119 524zM291 649q0 -119 2 -179t19.5 -137t52.5 -120q55 -70 178 -70t178 70q35 43 52.5 120t19.5 137t2 179v27q0 119 -2 179 t-19.5 137t-52.5 120q-55 70 -178 70t-178 -70q-35 -43 -52.5 -120t-19.5 -137t-2 -179v-27z" />
<glyph unicode="1" d="M164 1126q0 16 20 29l252 143q47 27 101 27h88q35 0 46 -9t11 -40v-1118h258q25 0 33 -7.5t8 -31.5v-84q0 -35 -41 -35h-733q-41 0 -41 35v84q0 25 8 32t33 7h274v970h-12l-199 -112q-25 -12 -30 -12q-10 0 -27 24l-29 49q-20 39 -20 49z" />
<glyph unicode="2" d="M135 53v121q0 186 63.5 300t207.5 177l151 68q113 51 149.5 103t36.5 153v14q0 109 -49 151t-155 42q-113 0 -289 -58q-18 -6 -27 -6q-18 0 -28 33l-15 49q-8 33 -8 41q0 23 21 31q174 72 362 71q197 0 295 -81.5t98 -264.5v-20q0 -154 -65.5 -242t-210.5 -151l-148 -66 q-113 -49 -155.5 -116.5t-42.5 -190.5v-53h561q43 0 43 -43v-76q0 -39 -43 -39h-692q-35 0 -47.5 11t-12.5 42z" />
<glyph unicode="3" d="M106 59q0 8 13 58l12 47q6 25 25 24q12 0 32 -6q145 -43 285 -43q252 0 252 228v16q0 129 -69.5 181t-231.5 52h-72q-39 0 -39 37v88q0 35 41 35h49q293 0 293 221v17q0 172 -207 172q-117 0 -247 -51q-25 -10 -37 -11q-18 0 -27 29l-14 49q-10 37 -10 47q0 18 22 29 q154 66 338 65q385 0 385 -317v-20q0 -246 -199 -297v-2q109 -18 169.5 -101.5t60.5 -216.5v-24q0 -182 -110.5 -282.5t-334.5 -100.5q-182 0 -346 47q-33 10 -33 30z" />
<glyph unicode="4" d="M55 371v45q0 29 45 104l465 758q29 47 80 47h154q37 0 51 -13.5t14 -45.5v-779h125q23 0 31 -8t8 -35v-77q0 -27 -7 -35t-32 -8h-125v-283q0 -41 -45 -41h-110q-45 0 -45 41v283h-558q-29 0 -40 10t-11 37zM256 487h408v639h-13z" />
<glyph unicode="5" d="M104 96q0 10 15 49l16 41q10 31 31 31q10 0 29 -8q160 -70 305 -70q133 0 193.5 65.5t60.5 205.5v18q0 125 -53.5 188.5t-178.5 63.5q-115 0 -248 -62q-29 -12 -34 -12q-14 0 -35 12l-31 17q-20 12 -20 33q0 10 4 80l37 532q2 45 49 45h577q25 0 34 -8t9 -29v-86 q0 -20 -9 -28.5t-34 -8.5h-436q-29 0 -31 -26l-22 -346q104 49 246 49q190 0 285 -106.5t95 -301.5v-26q0 -426 -462 -426q-193 0 -363 79q-29 15 -29 35z" />
<glyph unicode="6" d="M102 602v57q0 350 133.5 517t401.5 167q131 0 231 -36q43 -14 33 -50l-20 -77q-6 -23 -15.5 -28t-36.5 1q-98 31 -194 31q-176 0 -251 -108.5t-75 -330.5q137 96 314 97q178 0 269 -102.5t91 -290.5v-29q0 -207 -112.5 -322.5t-319.5 -115.5q-244 0 -346.5 152.5 t-102.5 467.5zM305 578q-2 -233 58.5 -336t191.5 -103q227 0 227 275v18q0 244 -211 244q-137 0 -266 -98z" />
<glyph unicode="7" d="M135 1204v78q0 43 43 43h778q25 0 33 -8t8 -31v-51q0 -33 -53 -143l-522 -1049q-20 -43 -76 -43h-115q-33 0 -32 23q0 14 24 59l553 1083h-598q-25 0 -34 8t-9 31z" />
<glyph unicode="8" d="M92 338v18q0 102 61.5 191.5t159.5 140.5q-178 109 -178 303v17q0 150 113.5 242.5t306.5 92.5q186 0 292.5 -82.5t106.5 -238.5v-18q0 -209 -182 -324q219 -94 219 -309v-23q0 -174 -125 -270t-321 -96q-211 0 -332 94t-121 262zM299 350q0 -98 67.5 -155.5t184.5 -57.5 q113 0 173 54.5t60 154.5v8q0 74 -47 122t-170 97l-116 48q-152 -98 -152 -261v-10zM334 993q0 -135 178 -207l119 -47q127 111 127 246v12q0 90 -56.5 140.5t-152.5 50.5t-155.5 -48t-59.5 -134v-13z" />
<glyph unicode="9" d="M102 881v34q0 193 116 310.5t319 117.5q244 0 345 -152.5t101 -477.5v-45q0 -379 -125 -532.5t-407 -153.5q-154 0 -248 32q-27 8 -27 27q0 16 10 57l11 45q8 35 49 25q100 -27 205 -27q190 0 256.5 105.5t70.5 320.5q-47 -39 -128 -63.5t-163 -24.5q-385 1 -385 402z M303 891q0 -248 213 -248q158 0 262 98q4 236 -50 340.5t-189 104.5q-236 0 -236 -268v-27z" />
<glyph unicode=":" horiz-adv-x="423" d="M92 90v33q0 53 30 80.5t79 27.5h22q109 0 109 -108v-33q0 -109 -109 -108h-22q-49 0 -79 27.5t-30 80.5zM92 870v33q0 53 30 81t79 28h22q109 0 109 -109v-33q0 -109 -109 -108h-22q-49 0 -79 27.5t-30 80.5z" />
<glyph unicode=";" horiz-adv-x="468" d="M92 -248q0 8 10 23q70 90 88 155q8 31 -12 43l-31 17q-41 23 -41 92v49q0 98 111 98h31q61 0 90 -29.5t29 -97.5v-18q0 -86 -41 -190q-49 -119 -115 -189q-12 -16 -25 -16q-14 0 -32 12l-43 27q-19 12 -19 24zM113 870v33q0 53 29.5 81t78.5 28h23q109 0 108 -109v-33 q0 -109 -108 -108h-23q-49 0 -78.5 27.5t-29.5 80.5z" />
<glyph unicode="&#x3c;" d="M129 512v43q0 33 29 49l667 359q23 12 37 12q18 0 33 -27l29 -49q23 -37 22 -53q0 -18 -33 -37l-514 -277l514 -272q33 -18 33 -37q0 -16 -22 -53l-29 -49q-14 -27 -33 -27q-14 0 -37 12l-667 357q-29 16 -29 49z" />
<glyph unicode="=" d="M92 279v83q0 47 49 48h801q49 0 49 -48v-83q0 -27 -11 -37.5t-38 -10.5h-801q-27 0 -38 10.5t-11 37.5zM92 700v84q0 47 49 47h801q49 0 49 -47v-84q0 -27 -11 -37t-38 -10h-801q-27 0 -38 10t-11 37z" />
<glyph unicode="&#x3e;" d="M139 223q0 18 33 37l514 272l-514 277q-33 18 -33 37q0 16 23 53l28 49q14 27 33 27q14 0 37 -12l668 -359q29 -16 28 -49v-43q0 -33 -28 -49l-668 -357q-23 -12 -37 -12q-18 0 -33 27l-28 49q-23 37 -23 53z" />
<glyph unicode="?" horiz-adv-x="909" d="M68 1243q0 20 26 33q158 68 348 67q383 0 383 -323v-12q0 -213 -219 -359l-55 -37q-78 -53 -108.5 -107t-30.5 -145v-6q0 -33 -37 -32h-86q-37 0 -37 32v13q0 143 36 212.5t132 135.5l59 41q145 100 146 245v13q0 170 -207 170q-72 0 -162 -23q-31 -8 -61.5 -18 t-48 -15.5t-27.5 -5.5q-18 0 -27 27l-12 41q-12 41 -12 53zM213 100v17q0 53 31.5 80.5t81.5 27.5h14q113 0 113 -119q0 -125 -113 -124h-14q-59 0 -86 28.5t-27 89.5z" />
<glyph unicode="@" horiz-adv-x="1632" d="M92 582q0 373 221.5 591t571.5 218q291 0 473 -164t182 -453q0 -231 -104.5 -362t-268.5 -131q-184 0 -235 110h-4q-68 -84 -195 -84q-106 0 -165.5 56.5t-59.5 160.5q0 86 24 238q41 254 265 254q143 0 190 -92l14 43q10 25 39 24h70q33 0 33 -20l-8 -78l-33 -275 q-14 -133 -15 -139q0 -80 93 -80q86 0 144 93.5t58 261.5q0 240 -138 365.5t-370 125.5q-260 0 -423.5 -171t-163.5 -480q0 -258 133 -384t420 -126q193 0 360 53q45 12 51 13q16 0 23 -25l10 -41q8 -33 8 -43q0 -16 -22 -25q-199 -74 -459 -73q-354 0 -536.5 164 t-182.5 475zM680 526q0 -96 96 -96q61 0 97 37t49 127l16 127q6 43 6 63q0 104 -115 105q-55 0 -81.5 -32t-42.5 -112q-25 -127 -25 -219z" />
<glyph unicode="A" horiz-adv-x="1122" d="M31 25q0 16 14 63q174 635 365 1172q14 41 35.5 53t72.5 12h86q51 0 72.5 -12.5t36.5 -52.5q190 -537 364 -1172q14 -47 15 -63q0 -25 -41 -25h-99q-37 0 -49 7t-20 36q-39 160 -84 315h-475q-45 -156 -84 -315q-8 -29 -20.5 -36t-49.5 -7h-98q-41 0 -41 25zM371 528h381 q-115 395 -185 598h-12q-69 -203 -184 -598z" />
<glyph unicode="B" horiz-adv-x="1097" d="M141 76v1173q0 37 11.5 51.5t46.5 20.5q123 23 270 22q463 0 463 -329v-23q0 -102 -46 -176t-128 -102v-2q119 -25 187.5 -102t68.5 -201v-23q0 -201 -134.5 -293t-394.5 -92q-176 0 -282 8q-35 2 -48.5 17.5t-13.5 50.5zM342 203q0 -35 37 -39q35 -2 119 -2 q152 0 230.5 49t78.5 170v20q0 115 -70.5 162t-234.5 47h-160v-407zM342 768h121q139 0 200.5 48t61.5 163v18q0 98 -57.5 141.5t-178.5 43.5q-90 0 -124 -8q-23 -6 -23 -31v-375z" />
<glyph unicode="C" horiz-adv-x="1060" d="M104 614v95q0 236 37 353.5t129 188.5q119 92 340 92q197 0 355 -92q20 -12 20 -26q0 -16 -16 -49l-31 -62q-8 -18 -27 -18q-10 0 -26 8q-137 76 -273 76q-150 0 -217 -74q-47 -49 -65.5 -138t-18.5 -282v-47q0 -199 14.5 -281t59.5 -133q72 -80 252 -80q119 0 262 50 q25 8 33 8q18 0 24 -19l13 -39q14 -47 14 -65q0 -23 -25 -31q-178 -68 -350 -67q-272 0 -385 118q-70 74 -94.5 184.5t-24.5 329.5z" />
<glyph unicode="D" horiz-adv-x="1226" d="M141 63v1194q0 35 13.5 51.5t46.5 18.5q123 12 264 12q348 0 502.5 -138t154.5 -480v-109q0 -328 -146.5 -470t-508.5 -142q-186 0 -264 2q-62 2 -62 61zM342 197q0 -37 37 -37h115q233 0 327 101t94 376v59q0 276 -95 379t-335 103q-68 0 -112 -4q-31 -2 -31 -35v-942z " />
<glyph unicode="E" horiz-adv-x="1015" d="M135 449v395q0 197 17 403q2 45 22.5 61.5t69.5 16.5h645q25 0 33 -8t8 -33v-82q0 -23 -8.5 -32t-32.5 -9h-506q-43 0 -45 -47q-6 -104 -6 -350h475q25 0 33 -8t8 -31v-84q0 -20 -8.5 -29.5t-32.5 -9.5h-475q0 -281 6 -393q2 -47 45 -47h504q27 0 35 -8.5t8 -30.5v-84 q0 -23 -8.5 -31t-34.5 -8h-643q-49 0 -68.5 16.5t-23.5 61.5q-17 170 -17 371z" />
<glyph unicode="F" horiz-adv-x="940" d="M139 41v1216q0 68 64 68h647q41 0 41 -39v-86q0 -39 -41 -39h-469q-25 0 -33 -9t-8 -32v-362h463q25 0 33 -9.5t8 -31.5v-82q0 -41 -41 -41h-463v-553q0 -25 -9 -33t-34 -8h-115q-25 0 -34 8t-9 33z" />
<glyph unicode="G" horiz-adv-x="1181" d="M104 616v95q0 385 189 532q129 100 377 100q190 0 348 -65q25 -8 24 -29q0 -10 -14 -51l-18 -57q-8 -25 -30 -25q-11 0 -26 6q-147 57 -295 58q-190 0 -269 -105.5t-79 -386.5v-51q0 -285 73 -388.5t269 -103.5q119 0 187 13q31 6 30 37v366h-165q-25 0 -34 7t-9 30v90 q0 23 9 31t34 8h327q39 0 39 -39v-594q0 -31 -9 -44t-38 -21q-180 -47 -371 -47q-315 0 -432 141t-117 493z" />
<glyph unicode="H" horiz-adv-x="1253" d="M141 43v1239q0 43 45 43h111q45 0 45 -43v-522h569v522q0 43 45 43h111q45 0 45 -43v-1239q0 -25 -10 -34t-35 -9h-113q-25 0 -34 8t-9 35v551h-569v-551q0 -25 -10 -34t-35 -9h-111q-25 0 -35 9t-10 34z" />
<glyph unicode="I" horiz-adv-x="503" d="M152 43v1239q0 25 9 34t34 9h112q45 0 45 -43v-1239q0 -25 -10 -34t-35 -9h-110q-25 0 -35 9t-10 34z" />
<glyph unicode="J" horiz-adv-x="780" d="M61 39v90q0 41 39 41h174q109 0 140 66q23 49 22 186v860q0 25 9.5 34t33.5 9h113q45 0 45 -43v-870q0 -193 -57 -287q-78 -125 -291 -125h-187q-25 0 -33 8t-8 31z" />
<glyph unicode="K" horiz-adv-x="1118" d="M133 43v1239q0 43 45 43h111q45 0 45 -43v-512h53q43 0 66 31l381 489q27 35 67 35h127q31 0 31 -18q0 -14 -15 -35l-450 -567v-11q244 -262 453 -600q31 -51 30 -67q0 -27 -33 -27h-118q-41 0 -62 33q-201 334 -379 532q-35 39 -75 39h-76v-561q0 -25 -10.5 -34 t-34.5 -9h-111q-25 0 -35 9t-10 34z" />
<glyph unicode="L" horiz-adv-x="854" d="M141 68v1214q0 43 45 43h111q45 0 45 -43v-1079q0 -23 8 -32t33 -9h377q27 0 35 -7.5t8 -29.5v-88q0 -20 -9.5 -28.5t-33.5 -8.5h-555q-64 0 -64 68z" />
<glyph unicode="M" horiz-adv-x="1568" d="M115 29q0 10 1 34.5t1 30.5q25 698 53 1168q2 39 19.5 51t66.5 12h113q53 0 71.5 -10t32.5 -53q201 -598 305 -879h10q178 471 308 879q12 43 31.5 53t72.5 10h113q49 0 66.5 -12.5t19.5 -50.5q29 -469 53 -1168q0 -6 1 -28.5t1 -36.5q0 -29 -45 -29h-104q-29 0 -38.5 7 t-9.5 34q-12 731 -26 1040h-12q-252 -723 -297 -835q-16 -39 -36 -48.5t-63 -9.5h-80q-41 0 -61 10.5t-35 47.5q-102 258 -299 835h-12q-4 -109 -27 -1040q0 -27 -9 -34t-36 -7h-106q-43 0 -43 29z" />
<glyph unicode="N" horiz-adv-x="1273" d="M141 43v1225q0 35 12.5 46t49.5 11h108q39 0 58.5 -12.5t38.5 -44.5l530 -975h10v989q0 25 9.5 34t33.5 9h99q25 0 34 -9t9 -34v-1227q0 -33 -12.5 -44t-49.5 -11h-108q-39 0 -58.5 12.5t-38.5 42.5l-530 977h-10v-989q0 -27 -9.5 -35t-33.5 -8h-99q-25 0 -34 8t-9 35z " />
<glyph unicode="O" horiz-adv-x="1228" d="M104 614v95q0 207 27 317.5t100 190.5q117 127 383.5 126.5t382.5 -126.5q74 -80 100.5 -191t26.5 -317v-95q0 -207 -26.5 -316.5t-100.5 -188.5q-117 -127 -383 -127t-383 127q-74 80 -100.5 189t-26.5 316zM311 639q0 -174 13.5 -264t60.5 -144q74 -86 229.5 -86 t229.5 86q47 53 60.5 143.5t13.5 264.5v47q0 174 -13.5 264t-60.5 144q-74 86 -229.5 86t-229.5 -86q-47 -53 -60.5 -143.5t-13.5 -264.5v-47z" />
<glyph unicode="P" horiz-adv-x="1040" d="M141 43v1217q0 35 12.5 49t43.5 18q125 16 301 16q262 0 377.5 -92t115.5 -309v-33q0 -420 -485 -420q-113 0 -164 3v-449q0 -27 -9 -35t-36 -8h-111q-27 0 -36 8t-9 35zM342 653q45 -2 129 -2q174 0 247 56.5t73 205.5v25q0 133 -66 188.5t-223 55.5q-76 0 -129 -6 q-31 -2 -31 -39v-484z" />
<glyph unicode="Q" horiz-adv-x="1228" d="M104 614v95q0 207 27 317.5t100 190.5q117 127 383.5 126.5t382.5 -126.5q74 -80 100.5 -191t26.5 -317v-95q0 -207 -26.5 -316.5t-100.5 -188.5q-86 -92 -256 -117q78 -119 263 -225q25 -16 24.5 -28.5t-20.5 -29.5l-74 -57q-20 -16 -39 -17q-12 0 -37 15 q-174 111 -309 334q-221 16 -318 125q-74 80 -100.5 189t-26.5 316zM311 639q0 -174 13.5 -264t60.5 -144q74 -86 229.5 -86t229.5 86q47 53 60.5 143.5t13.5 264.5v47q0 174 -13.5 264t-60.5 144q-74 86 -229.5 86t-229.5 -86q-47 -53 -60.5 -143.5t-13.5 -264.5v-47z" />
<glyph unicode="R" horiz-adv-x="1110" d="M141 43v1225q0 49 41 55q133 20 314 20q248 0 366.5 -86t118.5 -288v-39q0 -147 -67.5 -241.5t-180.5 -121.5q168 -207 301 -485q25 -49 25 -64q0 -18 -29 -18h-133q-31 0 -45 31q-127 268 -311 514q-29 -2 -96.5 -2t-102.5 2v-502q0 -25 -10 -34t-35 -9h-111 q-25 0 -35 9t-10 34zM342 707q82 -4 147 -5q164 0 227.5 50.5t63.5 183.5v27q0 123 -59 171t-215 48q-84 0 -135 -6q-29 -4 -29 -33v-436z" />
<glyph unicode="S" horiz-adv-x="997" d="M82 76q0 18 6 43l16 63q6 25 27 25q10 0 33 -8q158 -55 317 -56q139 0 191.5 47.5t52.5 165.5v21q0 102 -37 141t-160 68l-139 32q-164 39 -233.5 115t-69.5 228v32q0 350 420 350q182 0 311 -43q35 -12 35 -30q0 -10 -14 -64l-13 -45q-6 -29 -28 -28q-10 0 -27 6 q-135 43 -258 43q-125 0 -179 -45t-54 -148v-20q0 -90 41.5 -126t150.5 -61l139 -32q168 -39 235.5 -113t67.5 -244v-24q0 -211 -103 -299t-341 -88q-197 0 -356 59q-31 12 -31 35z" />
<glyph unicode="T" horiz-adv-x="983" d="M33 1202v84q0 39 41 39h835q41 0 41 -39v-84q0 -23 -8 -32t-33 -9h-317v-1120q0 -25 -9.5 -33t-33.5 -8h-115q-25 0 -34 8t-9 33v1120h-317q-25 0 -33 9t-8 32z" />
<glyph unicode="U" horiz-adv-x="1226" d="M131 438v844q0 43 43 43h115q43 0 43 -43v-833q0 -166 59 -228q70 -76 221 -76q154 0 224 76q59 66 59 228v833q0 43 45 43h111q45 0 45 -43v-844q0 -238 -117 -346q-121 -111 -367 -110q-242 0 -364 110q-117 104 -117 346z" />
<glyph unicode="V" horiz-adv-x="1103" d="M31 1298q0 27 37 27h112q47 0 58 -41q123 -520 305 -1077h18q176 532 305 1077q10 41 58 41h106q43 0 43 -25q0 -10 -12 -57q-182 -657 -363 -1182q-12 -37 -30.5 -49t-63.5 -12h-106q-43 0 -61.5 12.5t-33.5 48.5q-205 584 -350 1139q-22 86 -22 98z" />
<glyph unicode="W" horiz-adv-x="1638" d="M31 1298q0 27 39 27h106q31 0 42 -7t18 -36q106 -637 210 -1081h17q90 365 215 997q8 35 25.5 46t58.5 11h115q41 0 58 -11t26 -46q125 -633 215 -997h16q104 444 211 1081q6 29 17.5 36t41.5 7h107q39 0 39 -27q0 -12 -19 -112q-98 -537 -248 -1129q-8 -35 -27.5 -46 t-66.5 -11h-117q-47 0 -66.5 10t-27.5 47q-121 483 -209 959h-16q-88 -475 -209 -959q-8 -37 -27.5 -47t-66.5 -10h-117q-47 0 -66.5 11.5t-27.5 45.5q-150 592 -248 1129q-18 100 -18 112z" />
<glyph unicode="X" horiz-adv-x="1110" d="M37 20q0 12 26 74q109 250 279 539q12 25 12 45q0 23 -12 45q-147 270 -256 514q-29 61 -29 68q0 20 29 20h121q53 0 69 -41q100 -268 218 -469q29 -51 59 -51h8q18 0 28.5 10t28.5 41q111 190 220 469q16 41 69 41h121q29 0 29 -20q0 -6 -29 -68q-104 -225 -262 -514 q-12 -23 -12 -41q0 -14 18 -49q193 -346 275 -539q29 -68 28 -74q0 -20 -39 -20h-104q-59 0 -76 39q-123 297 -223 473q-31 53 -42 66.5t-30 13.5h-8q-18 0 -30.5 -14.5t-43.5 -65.5q-80 -131 -225 -473q-16 -39 -76 -39h-102q-39 0 -39 20z" />
<glyph unicode="Y" horiz-adv-x="978" d="M31 1300q0 25 43 25h98q43 0 53 -35q90 -342 258 -686h13q162 330 258 686q10 35 53 35h98q43 0 43 -25q0 -14 -14 -61q-135 -438 -344 -809v-389q0 -25 -9.5 -33t-35.5 -8h-111q-27 0 -36 8t-9 33v389q-205 360 -344 809q-14 47 -14 61z" />
<glyph unicode="Z" horiz-adv-x="1017" d="M68 49v43q0 27 36 88l609 981h-570q-41 0 -41 39v86q0 23 8.5 31t32.5 8h748q47 0 47 -43v-53q0 -45 -45 -117l-596 -948h584q25 0 33 -8.5t8 -28.5v-90q0 -20 -8.5 -28.5t-32.5 -8.5h-758q-55 0 -55 49z" />
<glyph unicode="[" horiz-adv-x="600" d="M143 -139v1478q0 39 41 39h334q23 0 31 -7t8 -30v-96q0 -20 -7 -26.5t-32 -6.5h-192v-1226h192q23 0 31 -7.5t8 -29.5v-96q0 -20 -7 -26.5t-32 -6.5h-334q-23 0 -32 9t-9 32z" />
<glyph unicode="\" horiz-adv-x="757" d="M61 1384q0 23 43 23h93q47 0 61 -43l422 -1329q16 -51 16 -62q0 -23 -43 -22h-92q-47 0 -61 43l-422 1329q-17 51 -17 61z" />
<glyph unicode="]" horiz-adv-x="600" d="M43 -51q0 23 8 30t31 7h192v1226h-192q-25 0 -32 6.5t-7 26.5v96q0 23 8 30t31 7h334q41 0 41 -39v-1478q0 -23 -9.5 -32t-31.5 -9h-334q-25 0 -32 6t-7 27v96z" />
<glyph unicode="^" d="M117 709q0 10 12 28l301 451q16 23 29.5 28t44.5 5h78q31 0 44 -5.5t29 -27.5l301 -451q12 -18 13 -28q0 -16 -35 -43l-55 -41q-23 -16 -39 -17q-20 0 -43 35l-246 373h-16l-246 -373q-23 -35 -43 -35q-16 0 -39 17l-55 41q-35 27 -35 43z" />
<glyph unicode="_" horiz-adv-x="1040" d="M51 -66q0 23 8.5 31t34.5 8h852q27 0 35 -8t8 -31v-63q0 -25 -8 -32t-35 -7h-852q-27 0 -35 7t-8 32v63z" />
<glyph unicode="`" horiz-adv-x="690" d="M106 1333q0 12 19 43l43 72q12 23 29 22q12 0 30 -10l332 -194q25 -14 25 -27q0 -10 -13 -31l-30 -51q-14 -25 -29 -24q-10 0 -35 10l-340 157q-31 15 -31 33z" />
<glyph unicode="a" horiz-adv-x="974" d="M78 276v33q0 168 98 242q82 66 316 65h49q70 0 125 -6v86q0 96 -47.5 132t-155.5 36q-102 0 -223 -30q-33 -8 -43 -9q-20 0 -27 29l-8 39q-8 41 -8 53q0 23 28 31q139 45 297 45q199 0 287 -78t88 -270v-645q0 -29 -33 -29h-80q-33 0 -39 29l-8 59h-4q-51 -106 -246 -106 h-63q-303 -1 -303 294zM268 279q0 -78 33 -111t111 -33h67q94 0 140.5 42t46.5 132v148q-49 6 -111 6h-90q-109 0 -153 -33t-44 -123v-28z" />
<glyph unicode="b" horiz-adv-x="1044" d="M127 338v1012q0 37 41 36h106q23 0 32 -8t9 -28v-416h4q82 88 256 88q201 0 292 -113.5t91 -363.5v-82q0 -262 -103 -371.5t-329 -109.5q-205 0 -302 77.5t-97 278.5zM315 354q0 -127 49.5 -172t167.5 -45q131 0 182.5 64.5t51.5 267.5v66q0 184 -48 256.5t-179 72.5 q-111 0 -167.5 -55t-56.5 -191v-264z" />
<glyph unicode="c" horiz-adv-x="876" d="M86 471v66q0 158 24.5 241.5t84.5 141.5q109 102 307 102q178 0 305 -86q18 -12 18 -27q0 -10 -20 -49l-29 -53q-12 -20 -24 -21q-10 0 -25 9q-109 68 -219 67q-109 0 -164 -49q-33 -31 -47 -78t-16 -85t-2 -130v-33q0 -217 51 -282q55 -68 186 -68q104 0 203 37 q20 8 31 8q18 0 26 -24l12 -43q10 -33 11 -47q0 -23 -31 -35q-115 -51 -276 -51q-203 0 -293 88q-113 106 -113 401z" />
<glyph unicode="d" horiz-adv-x="1044" d="M86 473v70q0 256 99.5 367.5t312.5 111.5q147 0 227 -76h4v404q0 37 41 36h107q23 0 32 -8t9 -28v-994q0 -375 -410 -374q-231 0 -326.5 113.5t-95.5 377.5zM279 479q0 -195 49 -268.5t180 -73.5q121 0 171 50.5t50 177.5v247q0 135 -53 194.5t-170 59.5 q-127 0 -177 -74.5t-50 -256.5v-56z" />
<glyph unicode="e" horiz-adv-x="952" d="M86 467v70q0 250 92 367.5t309 117.5q188 0 282.5 -98.5t94.5 -311.5v-147q0 -59 -57 -59h-528q4 -152 54 -210.5t195 -58.5q119 0 217 39q25 8 33 8q16 0 25 -22l14 -49q10 -35 10 -43q0 -18 -24 -31q-125 -57 -297 -57q-236 0 -328 111.5t-92 373.5zM276 559h379 q27 0 27 29q0 152 -42 215t-157 63q-123 0 -165 -70.5t-42 -236.5z" />
<glyph unicode="f" horiz-adv-x="638" d="M33 874v66q0 29 30 35l119 22v72q0 170 72 248q82 88 258 88q106 0 180 -21q27 -8 27 -24q0 -18 -10 -76l-4 -24q-4 -31 -52 -23q-66 10 -121 10q-76 0 -114 -30q-47 -37 -47 -156v-57h204q35 0 35 -33v-99q0 -31 -35 -30h-204v-805q0 -20 -9.5 -28.5t-31.5 -8.5h-107 q-41 0 -41 37v805h-119q-30 -1 -30 32z" />
<glyph unicode="g" horiz-adv-x="1048" d="M86 455v84q0 262 94 372.5t307 110.5q188 0 273 -113h4l12 66q6 29 41 29h64q39 0 39 -37v-981q0 -186 -78 -267q-96 -102 -310 -102q-164 0 -290 53q-35 14 -25 47l25 78q10 29 51 17q121 -39 229 -39q115 0 164 49q45 45 45 164v86h-2q-76 -90 -248 -90 q-209 0 -302 110.5t-93 362.5zM279 465q0 -195 49 -261.5t178 -66.5q225 0 225 225v271q0 231 -225 231q-131 0 -179 -70.5t-48 -271.5v-57z" />
<glyph unicode="h" horiz-adv-x="1054" d="M131 37v1313q0 37 41 36h107q23 0 31.5 -8t8.5 -28v-414q90 86 271 86q168 0 256 -91t88 -306v-588q0 -20 -9.5 -28.5t-31.5 -8.5h-107q-41 0 -41 37v588q0 135 -49 188t-168 53q-209 0 -209 -229v-600q0 -20 -9 -28.5t-31 -8.5h-107q-41 0 -41 37z" />
<glyph unicode="i" horiz-adv-x="479" d="M117 1253v15q0 59 32.5 88.5t86.5 29.5h10q117 0 116 -118v-15q0 -119 -116 -118h-10q-53 0 -86 29.5t-33 88.5zM145 37v930q0 37 41 37h107q23 0 32 -8.5t9 -28.5v-930q0 -20 -9.5 -28.5t-31.5 -8.5h-107q-41 0 -41 37z" />
<glyph unicode="j" horiz-adv-x="485" d="M-119 -233q0 33 31 32h47q121 0 156 55.5t35 198.5v914q0 37 40 37h107q23 0 32 -8.5t9 -28.5v-934q0 -199 -64 -285q-80 -113 -294 -113h-64q-35 0 -35 33v99zM121 1253v15q0 59 32.5 88.5t86.5 29.5h10q117 0 117 -118v-15q0 -119 -117 -118h-10q-53 0 -86 29.5 t-33 88.5z" />
<glyph unicode="k" horiz-adv-x="983" d="M131 37v1313q0 37 41 36h107q23 0 31.5 -8t8.5 -28v-734h72q25 0 39 21l272 338q18 29 58 29h117q25 0 31.5 -12.5t-7.5 -28.5l-344 -418q209 -213 365 -465q29 -47 28 -62q0 -18 -28 -18h-117q-37 0 -57 31q-143 231 -318 411q-14 14 -39 15h-72v-420q0 -20 -9 -28.5 t-31 -8.5h-107q-41 0 -41 37z" />
<glyph unicode="l" horiz-adv-x="548" d="M133 242v1108q0 37 41 36h107q23 0 32 -8t9 -28v-1080q0 -61 16 -85.5t68 -24.5h51q18 0 26.5 -7.5t8.5 -27.5v-88q0 -37 -33 -37h-88q-129 0 -183.5 55.5t-54.5 186.5z" />
<glyph unicode="m" horiz-adv-x="1646" d="M131 37v934q0 33 33 33h74q31 0 36 -29l11 -68h4q90 115 276 115q205 0 295 -133h2q127 133 322 133q180 0 261 -93t81 -296v-596q0 -20 -9.5 -28.5t-31.5 -8.5h-107q-41 0 -41 37v588q0 133 -45 187t-151 54q-145 0 -223 -102q8 -59 8 -150v-577q0 -20 -9.5 -28.5 t-31.5 -8.5h-107q-41 0 -41 37v588q0 131 -50 186t-163 55q-102 0 -153.5 -49t-51.5 -164v-616q0 -20 -9 -28.5t-31 -8.5h-107q-41 0 -41 37z" />
<glyph unicode="n" horiz-adv-x="1054" d="M131 37v936q0 31 33 31h72q35 0 38 -31l11 -66h4q94 115 291 115q180 0 267 -94t87 -310v-581q0 -20 -9.5 -28.5t-31.5 -8.5h-107q-41 0 -41 37v590q0 129 -49 185t-166 56q-106 0 -158.5 -48t-52.5 -165v-618q0 -20 -9 -28.5t-31 -8.5h-107q-41 0 -41 37z" />
<glyph unicode="o" horiz-adv-x="999" d="M86 467v70q0 279 102 381q104 104 311.5 104t311.5 -104q102 -102 102 -381v-70q0 -279 -102 -381q-104 -104 -311 -104t-312 104q-102 102 -102 381zM279 481q0 -180 32 -252q43 -96 188.5 -96t188.5 96q33 72 33 252v2v2v2v2v5v2v2v4v2v18q0 180 -33 252 q-43 96 -188.5 96t-188.5 -96q-33 -72 -32 -252v-2v-2v-2v-2v-2v-2v-4v-2v-4v-19z" />
<glyph unicode="p" horiz-adv-x="1050" d="M131 -326v1295q0 35 33 35h72q31 0 36 -29l13 -66h4q96 113 299 113q197 0 287 -104.5t90 -362.5v-92q0 -248 -88.5 -364.5t-303.5 -116.5q-170 0 -251 81h-3v-389q0 -20 -9 -28t-31 -8h-107q-41 -1 -41 36zM319 358q0 -117 56.5 -169t171.5 -52q131 0 178 73t47 259v68 q0 186 -47 256.5t-180 70.5q-125 0 -175.5 -53t-50.5 -174v-279z" />
<glyph unicode="q" horiz-adv-x="1048" d="M86 455v84q0 262 94 372.5t307 110.5q188 0 273 -113h4l12 66q6 29 41 29h64q39 0 39 -37v-1293q0 -20 -9.5 -28t-31.5 -8h-107q-41 0 -41 36v398h-2q-76 -90 -248 -90q-209 0 -302 110.5t-93 362.5zM279 465q0 -195 49 -261.5t178 -66.5q225 0 225 225v271 q0 231 -225 231q-131 0 -179 -70.5t-48 -271.5v-57z" />
<glyph unicode="r" horiz-adv-x="663" d="M131 37v936q0 31 33 31h72q37 0 38 -31l11 -101h4q41 70 98 101t156 31h41q25 0 34 -8.5t9 -28.5v-90q0 -35 -43 -35h-45q-125 0 -174 -58q-45 -53 -46 -178v-569q0 -20 -9 -28.5t-31 -8.5h-107q-41 0 -41 37z" />
<glyph unicode="s" horiz-adv-x="854" d="M82 61q0 12 12 62l10 37q8 29 27 28q6 0 15.5 -3t25.5 -9t33 -10q92 -29 209 -29q98 0 142 34t44 108v10q0 68 -32.5 97.5t-112.5 45.5l-97 21q-156 33 -208 90t-52 186v14q0 143 84 211t260 68q145 0 260 -35q25 -8 25 -26q0 -2 -12 -60l-10 -39q-8 -29 -25 -28 q-12 0 -41 8q-82 23 -184.5 22.5t-141.5 -28t-39 -93.5v-10q0 -53 32 -79.5t122 -47.5l94 -20q139 -29 196.5 -93.5t57.5 -195.5v-16q0 -145 -93 -222t-273 -77q-160 0 -299 51q-29 10 -29 28z" />
<glyph unicode="t" horiz-adv-x="692" d="M23 872v66q0 18 5 24.5t21 10.5l127 24v224q0 39 41 39h109q39 0 39 -39v-217h221q33 0 32 -37v-88q0 -37 -32 -37h-221v-504q0 -102 24 -139q27 -39 129 -39h88q20 0 28.5 -7.5t8.5 -31.5v-84q0 -20 -7 -28.5t-30 -8.5h-123q-178 0 -245 74q-61 70 -62 250v518h-123 q-30 -1 -30 30z" />
<glyph unicode="u" horiz-adv-x="1021" d="M121 301v666q0 37 41 37h106q23 0 32 -8.5t9 -28.5v-635q0 -113 47 -152q49 -41 155.5 -41t158.5 45q43 37 43 148v635q0 37 41 37h106q23 0 32 -8.5t9 -30.5v-664q0 -174 -104 -250q-90 -70 -285 -69.5t-287 69.5q-104 76 -104 250z" />
<glyph unicode="v" horiz-adv-x="917" d="M31 981q0 23 30 23h113q37 0 45 -35q100 -399 234 -789h14q131 385 231 789q8 35 45 35h113q31 0 31 -23q0 -12 -13 -61q-125 -485 -272 -854q-14 -39 -33.5 -52.5t-54.5 -13.5h-111q-35 0 -54 13.5t-34 52.5q-147 369 -272 854q-12 49 -12 61z" />
<glyph unicode="w" horiz-adv-x="1374" d="M31 979q0 25 43 25h98q41 0 47 -35q72 -420 164 -789h8q76 295 164 715q6 35 22.5 47t55.5 12h110q37 0 53.5 -12t24.5 -47q80 -395 162 -715h8q92 369 164 789q6 35 47 35h98q43 0 43 -25q0 -16 -10 -64q-100 -498 -203 -847q-20 -68 -83 -68h-103q-70 0 -88 68 q-104 379 -162 684h-12q-49 -260 -162 -684q-18 -68 -90 -68h-100q-66 0 -86 68q-102 350 -203 847q-10 48 -10 64z" />
<glyph unicode="x" horiz-adv-x="919" d="M31 18l30 72q68 154 189 363q25 43 24 63q0 18 -22 55q-100 170 -182 349q-27 57 -27 61q0 23 29 23h110q45 0 58 -31q84 -205 163 -342q18 -31 50 -31h14q29 0 45 31q82 139 168 342q14 31 57 31h111q29 0 29 -23q0 -4 -27 -61q-80 -172 -184 -349q-20 -33 -21 -55 q0 -14 25 -63q90 -150 186 -363l31 -72q0 -18 -29 -18h-104q-37 0 -48.5 5t-21.5 28q-86 217 -172 368q-16 31 -45 31h-14q-29 0 -45 -31q-96 -170 -172 -368q-10 -23 -22.5 -28t-47.5 -5h-107q-28 0 -28 18z" />
<glyph unicode="y" horiz-adv-x="899" d="M35 979q0 25 33 25h116q35 0 41 -31q86 -432 174 -690q20 -61 32.5 -83t29.5 -22h8q135 399 209 795q6 31 41 31h121q29 0 28 -21q0 -12 -14 -76q-76 -328 -167 -609.5t-255 -653.5q-14 -31 -29 -31q-16 0 -55 16l-55 23q-33 12 -33 29q0 10 25 59q68 137 118 264 q-92 18 -141 148q-117 305 -213 737q-14 72 -14 90z" />
<glyph unicode="z" horiz-adv-x="831" d="M55 37v41q0 37 41 100l428 666h-411q-35 0 -35 35v88q0 20 6 28.5t29 8.5h618q33 0 33 -33v-41q0 -37 -53 -119l-424 -651h448q35 0 35 -37v-88q0 -35 -35 -35h-635q-45 0 -45 37z" />
<glyph unicode="{" horiz-adv-x="671" d="M102 563v72q0 25 6.5 32t32.5 13q68 20 100.5 54t32.5 104v327q0 125 52.5 180.5t160.5 55.5h101q23 0 31 -7.5t8 -29.5v-90q0 -39 -37 -39h-53q-49 0 -64.5 -24.5t-15.5 -110.5v-248q0 -184 -144 -250v-6q78 -39 111 -96.5t33 -161.5v-246q0 -86 15 -110.5t65 -24.5h53 q37 0 37 -39v-90q0 -23 -8.5 -30t-30.5 -7h-101q-109 0 -161 55.5t-52 180.5v321q0 76 -32.5 112t-104.5 60q-25 8 -30 14t-5 29z" />
<glyph unicode="|" horiz-adv-x="471" d="M143 8v1350q0 29 11.5 40t42.5 11h77q31 0 42.5 -11.5t11.5 -39.5v-1350q0 -31 -12.5 -41t-43.5 -10h-73q-31 0 -43.5 10t-12.5 41z" />
<glyph unicode="}" horiz-adv-x="671" d="M45 -82q0 39 37 39h53q49 0 64.5 24.5t15.5 110.5v246q0 104 33 161.5t110 96.5v6q-143 66 -143 250v248q0 86 -15.5 110.5t-64.5 24.5h-53q-37 0 -37 39v90q0 23 8 30t31 7h100q109 0 161 -55.5t52 -180.5v-327q0 -70 33 -104t100 -54q27 -6 33 -13.5t6 -31.5v-72 q0 -23 -5 -29t-29 -14q-72 -25 -105 -60.5t-33 -111.5v-321q0 -125 -52 -180.5t-161 -55.5h-100q-23 0 -31 7t-8 30v90z" />
<glyph unicode="~" d="M70 577.5q0 16.5 26 57.5q119 174 277 174q84 0 186.5 -68.5t165.5 -68.5q70 0 135 112q12 23 29 23q12 0 33 -10l69 -35q25 -10 25 -31q0 -14 -8 -31q-115 -209 -275 -208q-76 0 -143.5 34.5t-121.5 68.5t-97 34q-68 0 -152 -113q-14 -20 -31 -20q-12 0 -30 10l-45 29 q-43 26 -43 42.5z" />
<glyph unicode="&#xa1;" horiz-adv-x="442" d="M102 887v26q0 109 113 109h14q111 0 111 -109v-26q0 -109 -111 -109h-14q-49 0 -81 28t-32 81zM113 -283l24 899q2 31 14.5 40.5t43.5 9.5h53q33 0 47 -10.5t14 -41.5l27 -897q2 -33 -9.5 -45t-47.5 -12h-107q-37 0 -49 11t-10 46z" />
<glyph unicode="&#xa2;" d="M174 471v66q0 158 24.5 241.5t84.5 141.5q90 88 256 100v166q0 29 30 28h62q31 0 31 -28v-170q139 -18 233 -82q18 -12 18 -27q0 -10 -20 -49l-29 -53q-12 -20 -24 -21q-10 0 -25 9q-78 47 -153 63v-717q80 8 145 35q20 8 31 8q18 0 26 -24l13 -43q10 -33 10 -47 q0 -23 -31 -35q-72 -33 -194 -47v-181q0 -29 -31 -28h-62q-31 0 -30 28v179q-176 10 -252 86q-113 106 -113 401zM367 487q0 -217 51 -282q39 -47 121 -64v717q-68 -10 -107 -45q-33 -31 -47 -78t-16 -85t-2 -130v-33z" />
<glyph unicode="&#xa3;" d="M111 43v51q0 35 43 64q135 90 135 305v135h-105q-25 0 -33 6t-8 29v55q0 23 8.5 32t30.5 13l107 19v180q0 213 96 311q100 100 309 100q150 0 256 -38q31 -10 31 -31q0 -12 -12 -53l-13 -41q-10 -31 -24 -31q-6 0 -29 6q-104 29 -207 29q-113 0 -157 -47 q-49 -49 -50 -205v-178h342q25 0 32 -8.5t7 -30.5v-82q0 -20 -8 -27.5t-31 -7.5h-342v-90q0 -125 -24.5 -206t-95.5 -140v-2h569q29 0 37 -7.5t8 -31.5v-82q0 -39 -43 -39h-782q-31 0 -39 8t-8 35z" />
<glyph unicode="&#xa4;" d="M55 223q0 12 35 47l119 117q-55 90 -55 200.5t55 200.5l-119 117q-35 35 -35 47q0 14 15 29l73 74q16 16 29 16q14 0 29 -14l139 -137q80 59 203 59t202 -59l140 137q14 14 28 14q12 0 29 -16l74 -74q14 -14 14 -29q0 -12 -35 -47l-118 -117q55 -90 55 -200.5t-55 -200.5 l118 -117q35 -35 35 -47q0 -14 -14 -28l-74 -74q-16 -16 -29 -17q-14 0 -28 15l-140 137q-80 -59 -202.5 -59t-202.5 59l-139 -137q-14 -14 -29 -15q-12 0 -29 17l-73 74q-15 14 -15 28zM334 588q0 -92 60.5 -151.5t148.5 -59.5t148.5 59.5t60.5 151.5t-60.5 151.5 t-148.5 59.5t-148.5 -59.5t-60.5 -151.5z" />
<glyph unicode="&#xa5;" d="M82 1286q-12 39 37 39h114q25 0 36.5 -7t17.5 -30q104 -358 250 -665h14q137 289 250 665q6 27 20.5 32t55.5 5h92q47 0 35 -39q-121 -379 -283 -684h162q25 0 30 -7t5 -32v-71q0 -20 -5.5 -28.5t-29.5 -8.5h-240v-111h240q25 0 30 -7t5 -32v-72q0 -20 -5.5 -28t-29.5 -8 h-240v-156q0 -25 -9 -33t-36 -8h-111q-27 0 -36 8t-9 33v156h-239q-25 0 -30 8t-5 28v72q0 25 5 32t30 7h239v111h-239q-25 0 -30 8t-5 29v71q0 25 5 32t30 7h162q-168 324 -283 684z" />
<glyph unicode="&#xa6;" horiz-adv-x="471" d="M143 8v459q0 29 11.5 40t42.5 11h77q31 0 42.5 -11t11.5 -40v-459q0 -31 -12.5 -41t-43.5 -10h-73q-31 0 -43.5 10t-12.5 41zM143 899v459q0 29 11.5 40t42.5 11h77q31 0 42.5 -11.5t11.5 -39.5v-459q0 -31 -12.5 -41t-43.5 -10h-73q-31 0 -43.5 10t-12.5 41z" />
<glyph unicode="&#xa7;" horiz-adv-x="892" d="M111 61q0 10 8 41l14 60q6 29 27 28q8 0 20 -4q131 -47 236 -47q102 0 142 28t40 85v12q0 47 -31.5 74t-99.5 41l-117 24q-127 27 -183 82.5t-56 163.5v10q0 66 33.5 114t82.5 71q-115 53 -114 213v18q0 252 352 252q119 0 235 -35q23 -8 23 -22q0 -10 -8 -43l-15 -60 q-6 -27 -22 -26q-10 0 -39 8q-84 25 -176 25q-80 0 -121 -21q-45 -25 -45 -84v-12q0 -43 28.5 -66.5t92.5 -36.5l123 -24q131 -25 187 -76t56 -156v-8q0 -135 -116 -205q115 -59 114 -213v-18q0 -129 -86 -199q-92 -74 -280 -73q-150 0 -275 49q-30 12 -30 30zM295 670 q0 -47 24.5 -72t88.5 -39l114 -24q74 47 74 133q0 47 -24.5 70.5t-96.5 37.5l-102 21q-78 -35 -78 -127z" />
<glyph unicode="&#xa8;" horiz-adv-x="724" d="M86 1286v33q0 98 98 98h21q100 0 100 -98v-33q0 -98 -100 -98h-21q-98 0 -98 98zM420 1286v33q0 98 98 98h21q100 0 100 -98v-33q0 -98 -100 -98h-21q-98 0 -98 98z" />
<glyph unicode="&#xa9;" horiz-adv-x="1687" d="M92 712.5q0 331.5 206 536.5t546 205t545.5 -206t205.5 -535q0 -332 -205.5 -538t-545.5 -206t-546 206t-206 537.5zM285 711q0 -256 148.5 -413t410.5 -157t410.5 157t148.5 413q0 258 -148.5 414.5t-410.5 156.5t-410.5 -156.5t-148.5 -414.5zM535 678v65 q0 186 71.5 277.5t245.5 91.5q125 0 229 -57q16 -10 17 -27q0 -12 -17 -45l-18 -37q-10 -20 -27 -20q-4 0 -45 18q-57 29 -121 29q-86 0 -121.5 -50.5t-35.5 -179.5v-47q0 -127 29.5 -185t131.5 -58q78 0 142 28q12 6 22 6q16 0 25 -28l12 -37q10 -31 10 -41q0 -12 -18 -23 q-88 -47 -209 -47q-178 0 -250.5 91.5t-72.5 275.5z" />
<glyph unicode="&#xaa;" horiz-adv-x="630" d="M53 774v23q0 100 58.5 145t187.5 45h49q29 0 70 -4v37q0 53 -24.5 71.5t-98.5 18.5q-61 0 -133 -16q-31 -6 -33 -7q-14 0 -18 31l-7 35q-4 20 -4 29q0 14 21 22q90 29 192 29q133 0 189.5 -48t56.5 -167v-395q0 -20 -20 -21h-78q-23 0 -25 21l-6 34q-43 -66 -137 -65h-47 q-193 0 -193 182zM193 778q0 -41 17 -58.5t60 -17.5h37q111 0 111 111v55q-33 4 -60 4h-63q-61 0 -81.5 -18t-20.5 -61v-15z" />
<glyph unicode="&#xab;" horiz-adv-x="1112" d="M76 467v16q0 41 28 64l297 246q33 27 52 26q16 0 34 -16l33 -31q31 -29 31 -49q0 -18 -23 -37l-225 -211l225 -209q23 -18 23 -37q0 -20 -31 -49l-33 -30q-18 -16 -34 -17q-18 0 -52 27l-297 243q-28 23 -28 64zM565 467v16q0 41 29 64l297 246q33 27 51 26q16 0 35 -16 l33 -31q31 -29 30 -49q0 -18 -22 -37l-225 -211l225 -209q23 -18 22 -37q0 -20 -30 -49l-33 -30q-18 -16 -35 -17q-18 0 -51 27l-297 243q-29 23 -29 64z" />
<glyph unicode="&#xac;" d="M92 489v84q0 47 49 48h801q49 0 49 -48v-446q0 -27 -10 -36t-37 -9h-94q-27 0 -37 9t-10 36v315h-662q-27 0 -38 10t-11 37z" />
<glyph unicode="&#xad;" horiz-adv-x="645" d="M72 483v92q0 27 10 36.5t37 9.5h407q27 0 37 -9.5t10 -36.5v-92q0 -41 -47 -41h-407q-47 0 -47 41z" />
<glyph unicode="&#xae;" horiz-adv-x="1687" d="M92 712.5q0 331.5 206 536.5t546 205t545.5 -206t205.5 -535q0 -332 -205.5 -538t-545.5 -206t-546 206t-206 537.5zM285 711q0 -256 148.5 -413t410.5 -157t410.5 157t148.5 413q0 258 -148.5 414.5t-410.5 156.5t-410.5 -156.5t-148.5 -414.5zM588 356v695q0 47 43 55 q66 12 194 12q303 0 303 -239v-21q0 -180 -157 -225l137 -230q31 -53 31 -63q0 -18 -29 -18h-102q-33 0 -50 30l-141 262q-43 0 -63 2v-260q0 -35 -43 -34h-82q-41 -1 -41 34zM754 748q41 -4 75 -5q68 0 100 27t32 92v10q0 59 -30 85t-95 26q-27 0 -68 -4q-14 -2 -14 -23 v-208z" />
<glyph unicode="&#xaf;" horiz-adv-x="720" d="M94 1249v78q0 35 39 35h455q39 0 39 -35v-78q0 -37 -39 -37h-455q-39 0 -39 37z" />
<glyph unicode="&#xb0;" horiz-adv-x="704" d="M78 1228.5q0 114.5 80 194.5t194.5 80t194.5 -80t80 -194.5t-80 -194.5t-194.5 -80t-194.5 80t-80 194.5zM244 1229q0 -53 29.5 -86t78.5 -33t79 33t30 86t-30 86t-79 33t-78.5 -33t-29.5 -86z" />
<glyph unicode="&#xb1;" d="M92 47v84q0 47 49 47h801q49 0 49 -47v-84q0 -27 -11 -37t-38 -10h-801q-27 0 -38 10t-11 37zM92 735v84q0 47 49 47h308v297q0 29 10 37t43 8h78q33 0 44 -8t11 -37v-297h307q49 0 49 -47v-84q0 -27 -11 -37t-38 -10h-307v-297q0 -29 -11.5 -37t-43.5 -8h-78 q-33 0 -43 8t-10 37v297h-308q-27 0 -38 10t-11 37z" />
<glyph unicode="&#xb2;" horiz-adv-x="747" d="M121 936v53q0 106 33.5 173t113.5 106l97 47q53 27 73.5 49t20.5 59v7q0 74 -105 73q-66 0 -143 -22q-14 -6 -25 -6q-12 0 -22 41l-8 34q-6 25 -6 39q0 18 24 27q94 33 209 33t177.5 -53.5t62.5 -151.5v-12q0 -80 -33 -130.5t-119 -93.5l-100 -49q-49 -25 -66.5 -49.5 t-17.5 -60.5v-15h291q20 0 27 -7t7 -28v-69q0 -35 -34 -35h-414q-25 0 -34 8t-9 33z" />
<glyph unicode="&#xb3;" horiz-adv-x="747" d="M117 931.5q0 18.5 6 45.5l8 43q6 25 25 24q6 0 18 -4q84 -27 162 -26q119 0 119 86v10q0 55 -27 72.5t-113 17.5h-43q-31 0 -30 33v72q0 31 30 30h41q80 0 106.5 20.5t26.5 67.5v11q0 70 -98 69q-59 0 -135 -22q-12 -4 -20 -4q-14 0 -23 26l-10 41q-8 33 -8 41 q0 14 20 23q94 37 211 37q227 0 227 -189v-16q0 -127 -96 -166v-6q109 -29 109 -156v-12q0 -223 -269 -223q-117 0 -209 28q-28 8 -28 26.5z" />
<glyph unicode="&#xb4;" horiz-adv-x="690" d="M106 1239q0 12 25 27l332 194q18 10 31 10q16 0 28 -22l43 -72q18 -31 19 -43q0 -18 -31 -33l-340 -157q-25 -10 -35 -10q-14 0 -28 24l-31 51q-13 21 -13 31z" />
<glyph unicode="&#xb5;" horiz-adv-x="1134" d="M131 -328v1295q0 37 41 37h107q23 0 31.5 -8.5t8.5 -28.5v-617q0 -121 42 -165t157 -44q109 0 160 51.5t51 165.5v609q0 37 41 37h107q23 0 32 -8.5t9 -30.5v-725q0 -57 13 -78t50 -21q18 0 47 5.5t37 5.5q16 0 18 -23l7 -41q8 -43 8 -57q0 -20 -33 -31q-51 -18 -125 -18 q-150 0 -182 108h-4q-74 -109 -246 -108q-123 0 -189 53v-363q0 -20 -9 -28.5t-31 -8.5h-107q-41 0 -41 37z" />
<glyph unicode="&#x3bc;" horiz-adv-x="1134" d="M131 -328v1295q0 37 41 37h107q23 0 31.5 -8.5t8.5 -28.5v-617q0 -121 42 -165t157 -44q109 0 160 51.5t51 165.5v609q0 37 41 37h107q23 0 32 -8.5t9 -30.5v-725q0 -57 13 -78t50 -21q18 0 47 5.5t37 5.5q16 0 18 -23l7 -41q8 -43 8 -57q0 -20 -33 -31q-51 -18 -125 -18 q-150 0 -182 108h-4q-74 -109 -246 -108q-123 0 -189 53v-363q0 -20 -9 -28.5t-31 -8.5h-107q-41 0 -41 37z" />
<glyph unicode="&#xb6;" horiz-adv-x="1224" d="M84 1014q0 162 110.5 269.5t301.5 107.5h606q23 0 30 -7.5t7 -27.5v-94q0 -33 -37 -33h-119v-1419q0 -27 -7 -33t-36 -6h-96q-27 0 -35 7t-8 32v1419h-170v-1419q0 -27 -7.5 -33t-35.5 -6h-111q-27 0 -35 7t-8 32v831q-152 10 -251 113.5t-99 259.5z" />
<glyph unicode="&#xb7;" horiz-adv-x="423" d="M92 578v32q0 53 30 81t79 28h22q109 0 109 -109v-32q0 -109 -109 -109h-22q-49 0 -79 28t-30 81z" />
<glyph unicode="&#xb8;" horiz-adv-x="651" d="M117 -438q0 12 4 37l6 39q2 20 16 20q6 0 23 -4q57 -16 112.5 -16t79 15t23.5 56q0 57 -68 58q-35 0 -69 -7q-20 -4 -23 -4q-12 0 -20 15l-17 26q-6 12 -6 23q0 8 6 39l23 127q4 16 22 16h84q18 0 19 -12q0 -10 -4 -31l-15 -86q31 6 66 6q66 0 109.5 -41t43.5 -123 q0 -197 -239 -196q-76 0 -156 22q-20 7 -20 21z" />
<glyph unicode="&#xb9;" horiz-adv-x="747" d="M92 1482.5q0 12.5 14 22.5l152 99q39 27 90 26h70q53 0 53 -47v-549h137q39 0 39 -35v-69q0 -20 -8 -27.5t-31 -7.5h-442q-23 0 -31 7t-8 28v69q0 35 39 35h145v430h-8l-115 -75q-14 -10 -22 -11q-12 0 -25 19l-32 51q-17 22 -17 34.5z" />
<glyph unicode="&#xba;" horiz-adv-x="673" d="M72 889v49q0 160 62.5 227.5t203.5 67.5t202.5 -67.5t61.5 -227.5v-49q0 -160 -61.5 -228.5t-202.5 -68.5t-203.5 68.5t-62.5 228.5zM219 901q0 -111 25.5 -149.5t93.5 -38.5t92.5 39t24.5 149v21q0 111 -26 150.5t-91 39.5q-68 0 -93.5 -41t-25.5 -149v-21z" />
<glyph unicode="&#xbb;" horiz-adv-x="1112" d="M72 229q0 18 22 37l225 209l-225 211q-23 18 -22 37q0 20 30 49l33 31q18 16 35 16q18 0 51 -26l297 -246q29 -23 29 -64v-16q0 -41 -29 -64l-297 -243q-33 -27 -51 -27q-16 0 -35 17l-33 30q-30 29 -30 49zM561 229q0 18 23 37l225 209l-225 211q-23 18 -23 37 q0 20 31 49l33 31q18 16 34 16q18 0 52 -26l297 -246q29 -23 28 -64v-16q0 -41 -28 -64l-297 -243q-33 -27 -52 -27q-16 0 -34 17l-33 30q-31 29 -31 49z" />
<glyph unicode="&#xbc;" horiz-adv-x="1730" d="M86 1177.5q0 12.5 14 22.5l152 98q39 27 90 27h70q53 0 53 -47v-549h137q39 0 39 -35v-69q0 -20 -8 -27.5t-31 -7.5h-442q-23 0 -31 7t-8 28v69q0 35 39 35h145v430h-8l-115 -76q-14 -10 -22 -10q-12 0 -25 19l-33 51q-16 22 -16 34.5zM438 -4q0 14 45 90l729 1225 q18 33 64 32h100q35 0 35 -20q0 -14 -45 -90l-729 -1225q-18 -33 -64 -33h-100q-35 1 -35 21zM1010 203v55q0 18 26 57l236 373q31 47 86 47h115q27 0 36 -8t9 -35v-393h69q16 0 20.5 -5t4.5 -22v-73q0 -29 -25 -29h-69v-141q0 -29 -33 -29h-99q-33 0 -32 29v141h-310 q-20 0 -27 6.5t-7 26.5zM1167 299h187v287h-4z" />
<glyph unicode="&#xbd;" horiz-adv-x="1730" d="M86 1177.5q0 12.5 14 22.5l152 98q39 27 90 27h70q53 0 53 -47v-549h137q39 0 39 -35v-69q0 -20 -8 -27.5t-31 -7.5h-442q-23 0 -31 7t-8 28v69q0 35 39 35h145v430h-8l-115 -76q-14 -10 -22 -10q-12 0 -25 19l-33 51q-16 22 -16 34.5zM438 -4q0 14 45 90l729 1225 q18 33 64 32h100q35 0 35 -20q0 -14 -45 -90l-729 -1225q-18 -33 -64 -33h-100q-35 1 -35 21zM1143 41v53q0 106 33.5 173t113.5 106l96 47q53 27 74 49.5t21 58.5v7q0 74 -105 73q-66 0 -143 -22q-16 -6 -25 -6q-12 0 -22 41l-8 34q-6 25 -7 39q0 18 25 27q94 33 209 33 t177.5 -53.5t62.5 -151.5v-12q0 -82 -34 -131.5t-118 -92.5l-100 -49q-49 -25 -66.5 -49.5t-17.5 -60.5v-15h290q20 0 27.5 -7t7.5 -28v-69q0 -35 -35 -35h-413q-25 0 -34 8t-9 33z" />
<glyph unicode="&#xbe;" horiz-adv-x="1730" d="M137 631q0 16 6 45l9 43q6 25 24 24q6 0 19 -4q84 -27 161 -26q119 0 119 86v10q0 55 -26.5 72.5t-112.5 17.5h-43q-31 0 -31 33v72q0 31 31 30h41q80 0 106.5 20.5t26.5 67.5v11q0 70 -98 69q-59 0 -136 -22q-12 -4 -20 -4q-14 0 -23 26l-10 41q-8 33 -8 41q0 14 21 23 q94 37 210 36q227 0 228 -188v-16q0 -127 -96 -166v-6q109 -29 108 -156v-12q0 -223 -268 -224q-117 0 -209 29q-29 9 -29 27zM406 -4q0 14 45 90l729 1225q18 33 63 32h100q35 0 35 -20q0 -14 -45 -90l-729 -1225q-18 -33 -63 -33h-101q-34 1 -34 21zM1010 203v55 q0 18 26 57l236 373q31 47 86 47h115q27 0 36 -8t9 -35v-393h69q16 0 20.5 -5t4.5 -22v-73q0 -29 -25 -29h-69v-141q0 -29 -33 -29h-99q-33 0 -32 29v141h-310q-20 0 -27 6.5t-7 26.5zM1167 299h187v287h-4z" />
<glyph unicode="&#xbf;" horiz-adv-x="909" d="M84 -4q0 213 219 358l55 37q78 53 109 107.5t31 144.5v6q0 33 37 33h86q37 0 36 -33v-12q0 -143 -35.5 -213t-132.5 -135l-59 -41q-145 -100 -145 -246v-12q0 -170 207 -170q72 0 161 22q31 8 61.5 18.5t48 15.5t28.5 5q18 0 26 -26l12 -41q12 -41 13 -54q0 -20 -27 -32 q-158 -68 -348 -68q-383 0 -383 324v12zM457 897q0 125 112 125h15q59 0 85.5 -28.5t26.5 -90.5v-16q0 -53 -31.5 -81t-80.5 -28h-15q-112 0 -112 119z" />
<glyph unicode="&#xc0;" horiz-adv-x="1122" d="M31 25q0 16 14 63q174 635 365 1172q14 41 35.5 53t72.5 12h86q51 0 72.5 -12.5t36.5 -52.5q190 -537 364 -1172q14 -47 15 -63q0 -25 -41 -25h-99q-37 0 -49 7t-20 36q-39 160 -84 315h-475q-45 -156 -84 -315q-8 -29 -20.5 -36t-49.5 -7h-98q-41 0 -41 25zM266 1612 q0 8 17 45l39 74q10 20 26 24q12 0 31 -10l344 -174q25 -10 27 -25q0 -10 -13 -30l-26 -54q-12 -27 -26.5 -26.5t-37.5 8.5l-348 137q-31 13 -33 31zM371 528h381q-115 395 -185 598h-12q-69 -203 -184 -598z" />
<glyph unicode="&#xc1;" horiz-adv-x="1122" d="M31 25q0 16 14 63q174 635 365 1172q14 41 35.5 53t72.5 12h86q51 0 72.5 -12.5t36.5 -52.5q190 -537 364 -1172q14 -47 15 -63q0 -25 -41 -25h-99q-37 0 -49 7t-20 36q-39 160 -84 315h-475q-45 -156 -84 -315q-8 -29 -20.5 -36t-49.5 -7h-98q-41 0 -41 25zM371 528h381 q-115 395 -185 598h-12q-69 -203 -184 -598zM383 1546q2 14 27 25l344 174q18 10 30 10q16 -4 27 -24l39 -74q16 -37 16 -45q-2 -18 -32 -31l-349 -137q-23 -8 -37 -8t-26 26l-27 54q-12 20 -12 30z" />
<glyph unicode="&#xc2;" horiz-adv-x="1122" d="M31 25q0 16 14 63q174 635 365 1172q14 41 35.5 53t72.5 12h86q51 0 72.5 -12.5t36.5 -52.5q190 -537 364 -1172q14 -47 15 -63q0 -25 -41 -25h-99q-37 0 -49 7t-20 36q-39 160 -84 315h-475q-45 -156 -84 -315q-8 -29 -20.5 -36t-49.5 -7h-98q-41 0 -41 25zM254 1520 q0 8 14 26l201 234q16 18 43 18h94q27 0 43 -18l201 -234q14 -18 14 -26q0 -12 -16 -25l-47 -33q-23 -16 -35 -16t-29 16l-174 178h-8l-174 -178q-16 -16 -28.5 -16t-35.5 16l-47 33q-16 13 -16 25zM371 528h381q-115 395 -185 598h-12q-69 -203 -184 -598z" />
<glyph unicode="&#xc3;" horiz-adv-x="1122" d="M31 25q0 16 14 63q174 635 365 1172q14 41 35.5 53t72.5 12h86q51 0 72.5 -12.5t36.5 -52.5q190 -537 364 -1172q14 -47 15 -63q0 -25 -41 -25h-99q-37 0 -49 7t-20 36q-39 160 -84 315h-475q-45 -156 -84 -315q-8 -29 -20.5 -36t-49.5 -7h-98q-41 0 -41 25zM223 1530 q0 8 6 20q82 170 217 170q61 0 117 -39l58 -39q47 -31 75 -30q55 0 103 80q8 14 20 14q8 0 25 -10l41 -27q18 -12 18 -24q0 -8 -6 -21q-90 -162 -215 -162q-59 0 -117 37l-55 39q-47 31 -74 31q-49 0 -98 -82q-10 -18 -23 -19q-10 0 -32 15l-43 24q-17 11 -17 23zM371 528 h381q-115 395 -185 598h-12q-69 -203 -184 -598z" />
<glyph unicode="&#xc4;" horiz-adv-x="1122" d="M31 25q0 16 14 63q174 635 365 1172q14 41 35.5 53t72.5 12h86q51 0 72.5 -12.5t36.5 -52.5q190 -537 364 -1172q14 -47 15 -63q0 -25 -41 -25h-99q-37 0 -49 7t-20 36q-39 160 -84 315h-475q-45 -156 -84 -315q-8 -29 -20.5 -36t-49.5 -7h-98q-41 0 -41 25zM283 1589v33 q0 98 98 98h20q100 0 101 -98v-33q0 -98 -101 -98h-20q-98 0 -98 98zM371 528h381q-115 395 -185 598h-12q-69 -203 -184 -598zM616 1589v33q0 98 99 98h20q100 0 101 -98v-33q0 -98 -101 -98h-20q-99 0 -99 98z" />
<glyph unicode="&#xc5;" horiz-adv-x="1122" d="M31 25q0 16 14 63q174 635 365 1172q14 41 35.5 53t72.5 12h86q51 0 72.5 -12.5t36.5 -52.5q190 -537 364 -1172q14 -47 15 -63q0 -25 -41 -25h-99q-37 0 -49 7t-20 36q-39 160 -84 315h-475q-45 -156 -84 -315q-8 -29 -20.5 -36t-49.5 -7h-98q-41 0 -41 25zM369 1602 q0 84 55 138t137 54t137.5 -54t55.5 -138t-55.5 -138.5t-137.5 -54.5t-137 54.5t-55 138.5zM371 528h381q-115 395 -185 598h-12q-69 -203 -184 -598zM483 1601.5q0 -34.5 21.5 -57t56.5 -22.5t56.5 22.5t21.5 57t-21.5 57t-56.5 22.5t-56.5 -22.5t-21.5 -57z" />
<glyph unicode="&#xc6;" horiz-adv-x="1675" d="M27 23q0 12 20 53q403 813 598 1167q27 47 59.5 64.5t96.5 17.5h749q23 0 31 -7t8 -28v-92q0 -20 -8 -27.5t-31 -7.5h-551v-399h474q23 0 30.5 -7t7.5 -28v-92q0 -20 -8 -27.5t-30 -7.5h-474v-358q0 -47 19.5 -64.5t68.5 -17.5h463q23 0 31 -7.5t8 -27.5v-92 q0 -20 -8 -27.5t-31 -7.5h-481q-141 0 -203.5 50t-62.5 173v135h-410l-149 -315q-20 -43 -86 -43h-78q-53 0 -53 23zM477 528h326v635h-15q-43 -82 -311 -635z" />
<glyph unicode="&#xc7;" horiz-adv-x="1060" d="M104 614v95q0 236 37 351.5t129 186.5q125 96 340 96q197 0 355 -92q20 -12 20 -26q0 -16 -16 -49l-31 -62q-8 -18 -27 -18q-10 0 -26 8q-131 76 -273 76q-150 0 -217 -74q-47 -49 -65.5 -138t-18.5 -282v-47q0 -199 14.5 -281t59.5 -133q72 -80 252 -80q119 0 262 50 q25 8 33 8q18 0 24 -19l13 -39q14 -47 14 -65q0 -23 -25 -31q-156 -61 -327 -67l-19 -109q31 6 66 6q66 0 109.5 -41t43.5 -123q0 -197 -239 -196q-76 0 -156 22q-20 6 -20 21q0 12 4 37l6 39q2 20 16 20q6 0 23 -4q57 -16 112.5 -16t79 15t23.5 56q0 57 -68 58 q-35 0 -69 -7q-20 -4 -23 -4q-12 0 -20 15l-17 26q-6 12 -6 23q0 8 6 39l23 129q-190 16 -283 116q-70 74 -94.5 183.5t-24.5 326.5z" />
<glyph unicode="&#xc8;" horiz-adv-x="1015" d="M135 449q0 -201 17 -371q4 -45 23.5 -61.5t68.5 -16.5h643q27 0 35 8t8 31v84q0 23 -8.5 31t-34.5 8h-504q-43 0 -45 47q-6 113 -6 393h475q25 0 33 9.5t8 29.5v84q0 23 -8.5 31t-32.5 8h-475q0 246 6 350q2 47 45 47h506q25 0 33 9.5t8 31.5v82q0 25 -8.5 33t-32.5 8 h-645q-49 0 -69.5 -16.5t-22.5 -61.5q-16 -207 -17 -403v-395zM332 1602q0 8 16 45l39 73q10 20 27 25q12 0 30 -10l344 -174q25 -10 27 -25q0 -8 -12 -31l-27 -53q-12 -27 -26.5 -27t-36.5 9l-348 137q-31 13 -33 31z" />
<glyph unicode="&#xc9;" horiz-adv-x="1015" d="M135 449q0 -201 17 -371q4 -45 23.5 -61.5t68.5 -16.5h643q27 0 35 8t8 31v84q0 23 -8.5 31t-34.5 8h-504q-43 0 -45 47q-6 113 -6 393h475q25 0 33 9.5t8 29.5v84q0 23 -8.5 31t-32.5 8h-475q0 246 6 350q2 47 45 47h506q25 0 33 9.5t8 31.5v82q0 25 -8.5 33t-32.5 8 h-645q-49 0 -69.5 -16.5t-22.5 -61.5q-16 -207 -17 -403v-395zM397 1536q2 14 27 25l344 174q18 10 31 10q16 -4 26 -25l39 -73q16 -37 17 -45q-2 -18 -33 -31l-348 -137q-23 -8 -37 -8.5t-27 26.5l-26 53q-13 23 -13 31z" />
<glyph unicode="&#xca;" horiz-adv-x="1015" d="M135 449q0 -201 17 -371q4 -45 23.5 -61.5t68.5 -16.5h643q27 0 35 8t8 31v84q0 23 -8.5 31t-34.5 8h-504q-43 0 -45 47q-6 113 -6 393h475q25 0 33 9.5t8 29.5v84q0 23 -8.5 31t-32.5 8h-475q0 246 6 350q2 47 45 47h506q25 0 33 9.5t8 31.5v82q0 25 -8.5 33t-32.5 8 h-645q-49 0 -69.5 -16.5t-22.5 -61.5q-16 -207 -17 -403v-395zM276 1509q0 8 15 27l201 233q16 18 43 19h94q27 0 43 -19l200 -233q14 -18 15 -27q0 -12 -17 -24l-47 -33q-23 -16 -35 -16t-28 16l-174 178h-8l-175 -178q-16 -16 -28.5 -16t-34.5 16l-47 33q-17 12 -17 24z " />
<glyph unicode="&#xcb;" horiz-adv-x="1015" d="M135 449q0 -201 17 -371q4 -45 23.5 -61.5t68.5 -16.5h643q27 0 35 8t8 31v84q0 23 -8.5 31t-34.5 8h-504q-43 0 -45 47q-6 113 -6 393h475q25 0 33 9.5t8 29.5v84q0 23 -8.5 31t-32.5 8h-475q0 246 6 350q2 47 45 47h506q25 0 33 9.5t8 31.5v82q0 25 -8.5 33t-32.5 8 h-645q-49 0 -69.5 -16.5t-22.5 -61.5q-16 -207 -17 -403v-395zM297 1579v33q0 98 98 98h21q100 0 100 -98v-33q0 -98 -100 -98h-21q-98 0 -98 98zM631 1579v33q0 98 98 98h21q100 0 100 -98v-33q0 -98 -100 -98h-21q-98 0 -98 98z" />
<glyph unicode="&#xcc;" horiz-adv-x="503" d="M-82 1602q0 8 16 45l39 73q10 20 27 25q12 0 31 -10l344 -174q25 -10 26 -25q0 -8 -12 -31l-27 -53q-12 -27 -26 -27t-37 9l-348 137q-31 13 -33 31zM152 43v1239q0 25 9 34t34 9h112q45 0 45 -43v-1239q0 -25 -10 -34t-35 -9h-110q-25 0 -35 9t-10 34z" />
<glyph unicode="&#xcd;" horiz-adv-x="503" d="M92 1536q2 14 27 25l344 174q18 10 31 10q16 -4 26 -25l39 -73q16 -37 16 -45q-2 -18 -32 -31l-348 -137q-23 -8 -37.5 -8.5t-26.5 26.5l-27 53q-12 23 -12 31zM152 43v1239q0 25 9 34t34 9h112q45 0 45 -43v-1239q0 -25 -10 -34t-35 -9h-110q-25 0 -35 9t-10 34z" />
<glyph unicode="&#xce;" horiz-adv-x="503" d="M-53 1509q0 8 14 27l201 233q16 18 43 19h94q27 0 43 -19l201 -233q14 -18 14 -27q0 -12 -16 -24l-47 -33q-23 -16 -35.5 -16t-28.5 16l-174 178h-8l-174 -178q-16 -16 -28.5 -16t-35.5 16l-47 33q-16 12 -16 24zM152 43v1239q0 25 9 34t34 9h112q45 0 45 -43v-1239 q0 -25 -10 -34t-35 -9h-110q-25 0 -35 9t-10 34z" />
<glyph unicode="&#xcf;" horiz-adv-x="503" d="M-25 1579v33q0 98 99 98h20q100 0 101 -98v-33q0 -98 -101 -98h-20q-99 0 -99 98zM152 43v1239q0 25 9 34t34 9h112q45 0 45 -43v-1239q0 -25 -10 -34t-35 -9h-110q-25 0 -35 9t-10 34zM309 1579v33q0 98 99 98h20q100 0 100 -98v-33q0 -98 -100 -98h-20q-99 0 -99 98z " />
<glyph unicode="&#xd0;" horiz-adv-x="1269" d="M33 639v80q0 27 8 36t33 9h110v493q0 35 13.5 51.5t46.5 18.5q123 12 264 12q348 0 502.5 -138t154.5 -480v-109q0 -328 -146.5 -470t-508.5 -142q-186 0 -264 2q-61 2 -62 61v531h-110q-25 0 -33 9t-8 36zM385 197q0 -37 37 -37h115q233 0 327 101t94 376v59 q0 276 -95 379t-335 103q-68 0 -112 -4q-31 -2 -31 -35v-375h205q29 0 37 -10.5t8 -42.5v-68q0 -25 -13.5 -36t-24.5 -12t-40 -1h-172v-397z" />
<glyph unicode="&#xd1;" horiz-adv-x="1273" d="M141 43v1225q0 35 12.5 46t49.5 11h108q39 0 58.5 -12.5t38.5 -44.5l530 -975h10v989q0 25 9.5 34t33.5 9h99q25 0 34 -9t9 -34v-1227q0 -33 -12.5 -44t-49.5 -11h-108q-39 0 -58.5 12.5t-38.5 42.5l-530 977h-10v-989q0 -27 -9.5 -35t-33.5 -8h-99q-25 0 -34 8t-9 35z M307 1520q0 8 6 20q82 170 217 170q61 0 117 -39l58 -39q45 -31 75 -30q55 0 103 79q8 14 20 15q8 0 25 -10l41 -27q18 -12 18 -25q0 -8 -6 -20q-90 -162 -215 -162q-57 0 -117 37l-55 39q-45 31 -74 31q-49 0 -98 -82q-8 -18 -23 -19q-10 0 -32 15l-43 24q-17 11 -17 23z " />
<glyph unicode="&#xd2;" horiz-adv-x="1228" d="M104 614v95q0 207 27 317.5t100 190.5q117 127 383.5 126.5t382.5 -126.5q74 -80 100.5 -191t26.5 -317v-95q0 -207 -26.5 -316.5t-100.5 -188.5q-117 -127 -383 -127t-383 127q-74 80 -100.5 189t-26.5 316zM311 639q0 -174 13.5 -264t60.5 -144q74 -86 229.5 -86 t229.5 86q47 53 60.5 143.5t13.5 264.5v47q0 174 -13.5 264t-60.5 144q-74 86 -229.5 86t-229.5 -86q-47 -53 -60.5 -143.5t-13.5 -264.5v-47zM354 1602q0 8 17 45l39 73q10 20 26 25q12 0 31 -10l344 -174q25 -10 27 -25q0 -8 -13 -31l-26 -53q-12 -27 -26.5 -27t-37.5 9 l-348 137q-31 13 -33 31z" />
<glyph unicode="&#xd3;" horiz-adv-x="1228" d="M104 614v95q0 207 27 317.5t100 190.5q117 127 383.5 126.5t382.5 -126.5q74 -80 100.5 -191t26.5 -317v-95q0 -207 -26.5 -316.5t-100.5 -188.5q-117 -127 -383 -127t-383 127q-74 80 -100.5 189t-26.5 316zM311 639q0 -174 13.5 -264t60.5 -144q74 -86 229.5 -86 t229.5 86q47 53 60.5 143.5t13.5 264.5v47q0 174 -13.5 264t-60.5 144q-74 86 -229.5 86t-229.5 -86q-47 -53 -60.5 -143.5t-13.5 -264.5v-47zM424 1536q2 14 27 25l344 174q18 10 30 10q16 -4 27 -25l39 -73q16 -37 16 -45q-2 -18 -33 -31l-348 -137q-23 -8 -37 -8.5 t-26 26.5l-27 53q-12 23 -12 31z" />
<glyph unicode="&#xd4;" horiz-adv-x="1228" d="M104 614v95q0 207 27 317.5t100 190.5q117 127 383.5 126.5t382.5 -126.5q74 -80 100.5 -191t26.5 -317v-95q0 -207 -26.5 -316.5t-100.5 -188.5q-117 -127 -383 -127t-383 127q-74 80 -100.5 189t-26.5 316zM311 639q0 -174 13.5 -264t60.5 -144q74 -86 229.5 -86 t229.5 86q47 53 60.5 143.5t13.5 264.5v47q0 174 -13.5 264t-60.5 144q-74 86 -229.5 86t-229.5 -86q-47 -53 -60.5 -143.5t-13.5 -264.5v-47zM311 1509q0 8 15 27l200 233q16 18 43 19h95q27 0 43 -19l200 -233q14 -18 15 -27q0 -12 -17 -24l-47 -33q-23 -16 -35 -16 t-28 16l-174 178h-9l-174 -178q-16 -16 -28.5 -16t-34.5 16l-47 33q-17 12 -17 24z" />
<glyph unicode="&#xd5;" horiz-adv-x="1228" d="M104 614v95q0 207 27 317.5t100 190.5q117 127 383.5 126.5t382.5 -126.5q74 -80 100.5 -191t26.5 -317v-95q0 -207 -26.5 -316.5t-100.5 -188.5q-117 -127 -383 -127t-383 127q-74 80 -100.5 189t-26.5 316zM276 1520q0 8 7 20q82 170 217 170q61 0 116 -39l58 -39 q47 -31 76 -30q55 0 102 79q8 14 20 15q8 0 25 -10l41 -27q18 -12 18 -25q0 -8 -6 -20q-90 -162 -215 -162q-59 0 -117 37l-55 39q-47 31 -74 31q-49 0 -98 -82q-10 -18 -22 -19q-10 0 -33 15l-43 24q-17 11 -17 23zM311 639q0 -174 13.5 -264t60.5 -144q74 -86 229.5 -86 t229.5 86q47 53 60.5 143.5t13.5 264.5v47q0 174 -13.5 264t-60.5 144q-74 86 -229.5 86t-229.5 -86q-47 -53 -60.5 -143.5t-13.5 -264.5v-47z" />
<glyph unicode="&#xd6;" horiz-adv-x="1228" d="M104 614v95q0 207 27 317.5t100 190.5q117 127 383.5 126.5t382.5 -126.5q74 -80 100.5 -191t26.5 -317v-95q0 -207 -26.5 -316.5t-100.5 -188.5q-117 -127 -383 -127t-383 127q-74 80 -100.5 189t-26.5 316zM311 639q0 -174 13.5 -264t60.5 -144q74 -86 229.5 -86 t229.5 86q47 53 60.5 143.5t13.5 264.5v47q0 174 -13.5 264t-60.5 144q-74 86 -229.5 86t-229.5 -86q-47 -53 -60.5 -143.5t-13.5 -264.5v-47zM342 1579v33q0 98 98 98h21q100 0 100 -98v-33q0 -98 -100 -98h-21q-98 0 -98 98zM676 1579v33q0 98 98 98h21q100 0 100 -98v-33 q0 -98 -100 -98h-21q-98 0 -98 98z" />
<glyph unicode="&#xd7;" d="M172 790.5q2 12.5 25 34.5l49 49q23 23 36 25t35 -16l224 -226l221 220q37 37 67 2l60 -60q33 -33 -2 -67l-219 -222l225 -223q18 -23 16 -36t-24 -35l-49 -50q-23 -23 -35.5 -24.5t-34.5 18.5l-225 226l-219 -220q-35 -35 -68 -2l-59 60q-35 31 2 67l219 219l-226 226 q-20 22 -18 34.5z" />
<glyph unicode="&#xd8;" horiz-adv-x="1228" d="M104 614v95q0 207 27 317.5t100 190.5q117 127 383 126q160 0 273 -51l71 129q12 25 29 25q12 0 39 -14l39 -21q27 -14 27 -28.5t-27 -59.5l-64 -113q70 -80 96.5 -190.5t26.5 -310.5v-95q0 -207 -26.5 -316.5t-100.5 -188.5q-117 -127 -383 -127q-147 0 -266 47 l-65 -121q-16 -25 -28.5 -25t-39.5 15l-39 20q-27 14 -26.5 28.5t26.5 59.5l55 100v3q-74 80 -100.5 189t-26.5 316zM311 639q0 -250 31 -334l457 828q-70 47 -185 47q-156 0 -229 -86q-47 -53 -60.5 -143.5t-13.5 -264.5v-47zM436 186q61 -41 178 -41q156 0 230 86 q47 53 60.5 143.5t13.5 264.5v47q0 240 -27 322z" />
<glyph unicode="&#xd9;" horiz-adv-x="1226" d="M131 438v844q0 43 43 43h115q43 0 43 -43v-833q0 -166 59 -228q70 -76 221 -76q154 0 224 76q59 66 59 228v833q0 43 45 43h111q45 0 45 -43v-844q0 -238 -117 -346q-121 -111 -367 -110q-242 0 -364 110q-117 104 -117 346zM342 1602q0 8 16 45l39 73q10 20 27 25 q12 0 31 -10l344 -174q25 -10 26 -25q0 -8 -12 -31l-27 -53q-12 -27 -26.5 -27t-36.5 9l-348 137q-31 13 -33 31z" />
<glyph unicode="&#xda;" horiz-adv-x="1226" d="M131 438v844q0 43 43 43h115q43 0 43 -43v-833q0 -166 59 -228q70 -76 221 -76q154 0 224 76q59 66 59 228v833q0 43 45 43h111q45 0 45 -43v-844q0 -238 -117 -346q-121 -111 -367 -110q-242 0 -364 110q-117 104 -117 346zM426 1536q2 14 27 25l344 174q18 10 30 10 q16 -4 27 -25l39 -73q16 -37 16 -45q-2 -18 -32 -31l-349 -137q-23 -8 -37 -8.5t-26 26.5l-27 53q-12 23 -12 31z" />
<glyph unicode="&#xdb;" horiz-adv-x="1226" d="M131 438v844q0 43 43 43h115q43 0 43 -43v-833q0 -166 59 -228q70 -76 221 -76q154 0 224 76q59 66 59 228v833q0 43 45 43h111q45 0 45 -43v-844q0 -238 -117 -346q-121 -111 -367 -110q-242 0 -364 110q-117 104 -117 346zM311 1509q0 8 15 27l200 233q16 18 43 19h95 q27 0 43 -19l200 -233q14 -18 15 -27q0 -12 -17 -24l-47 -33q-23 -16 -35 -16t-28 16l-174 178h-9l-174 -178q-16 -16 -28.5 -16t-34.5 16l-47 33q-17 12 -17 24z" />
<glyph unicode="&#xdc;" horiz-adv-x="1226" d="M131 438v844q0 43 43 43h115q43 0 43 -43v-833q0 -166 59 -228q70 -76 221 -76q154 0 224 76q59 66 59 228v833q0 43 45 43h111q45 0 45 -43v-844q0 -238 -117 -346q-121 -111 -367 -110q-242 0 -364 110q-117 104 -117 346zM340 1579v33q0 98 98 98h21q100 0 100 -98 v-33q0 -98 -100 -98h-21q-98 0 -98 98zM674 1579v33q0 98 98 98h21q100 0 100 -98v-33q0 -98 -100 -98h-21q-98 0 -98 98z" />
<glyph unicode="&#xdd;" horiz-adv-x="978" d="M31 1300q0 25 43 25h98q43 0 53 -35q90 -342 258 -686h13q162 330 258 686q10 35 53 35h98q43 0 43 -25q0 -14 -14 -61q-135 -438 -344 -809v-389q0 -25 -9.5 -33t-35.5 -8h-111q-27 0 -36 8t-9 33v389q-205 360 -344 809q-14 47 -14 61zM305 1536q2 14 27 25l344 174 q18 10 31 10q16 -4 26 -25l39 -73q16 -37 16 -45q-2 -18 -32 -31l-348 -137q-23 -8 -37.5 -8.5t-26.5 26.5l-27 53q-12 23 -12 31z" />
<glyph unicode="&#xde;" horiz-adv-x="1058" d="M141 43v1239q0 25 9.5 34t33.5 9h113q45 0 45 -43v-162q94 4 162 4q262 0 377.5 -92t115.5 -309v-33q0 -418 -493 -418q-111 0 -162 2v-231q0 -25 -10 -34t-35 -9h-111q-25 0 -35 9t-10 34zM342 436q45 -2 143 -2q158 0 232 56.5t74 203.5v25q0 133 -66 188.5t-223 55.5 q-86 0 -160 -7v-520z" />
<glyph unicode="&#xdf;" horiz-adv-x="1075" d="M131 -115v1135q0 207 96.5 296t311.5 89q184 0 289.5 -87t105.5 -247v-24q0 -113 -45 -193t-125 -109v-6q238 -47 237 -323v-37q0 -209 -96 -303t-291 -94q-104 0 -190 16q-31 6 -31 25q0 14 4 47l6 55q4 25 25 25q6 0 57.5 -7.5t100.5 -7.5q123 0 174 63.5t51 192.5v23 q0 129 -62.5 181t-201.5 52h-64q-33 0 -32 29v96q0 33 32 33h25q125 0 180 54t55 171v19q0 199 -211 198q-121 0 -167 -56t-46 -202v-1104q0 -20 -9 -28.5t-31 -8.5h-107q-41 0 -41 37z" />
<glyph unicode="&#xe0;" horiz-adv-x="974" d="M78 276v33q0 168 98 242q82 66 316 65h49q70 0 125 -6v86q0 96 -47.5 132t-155.5 36q-102 0 -223 -30q-33 -8 -43 -9q-20 0 -27 29l-8 39q-8 41 -8 53q0 23 28 31q139 45 297 45q199 0 287 -78t88 -270v-645q0 -29 -33 -29h-80q-33 0 -39 29l-8 59h-4q-51 -106 -246 -106 h-63q-303 -1 -303 294zM252 1333q0 12 18 43l43 72q12 23 29 22q12 0 31 -10l332 -194q25 -14 24 -27q0 -10 -12 -31l-31 -51q-14 -25 -29 -24q-10 0 -34 10l-340 157q-31 15 -31 33zM268 279q0 -78 33 -111t111 -33h67q94 0 140.5 42t46.5 132v148q-49 6 -111 6h-90 q-109 0 -153 -33t-44 -123v-28z" />
<glyph unicode="&#xe1;" horiz-adv-x="974" d="M78 276v33q0 168 98 242q82 66 316 65h49q70 0 125 -6v86q0 96 -47.5 132t-155.5 36q-102 0 -223 -30q-33 -8 -43 -9q-20 0 -27 29l-8 39q-8 41 -8 53q0 23 28 31q139 45 297 45q199 0 287 -78t88 -270v-645q0 -29 -33 -29h-80q-33 0 -39 29l-8 59h-4q-51 -106 -246 -106 h-63q-303 -1 -303 294zM268 279q0 -78 33 -111t111 -33h67q94 0 140.5 42t46.5 132v148q-49 6 -111 6h-90q-109 0 -153 -33t-44 -123v-28zM309 1239q0 12 25 27l332 194q18 10 30 10q16 0 29 -22l43 -72q18 -31 18 -43q0 -18 -30 -33l-340 -157q-25 -10 -35 -10 q-14 0 -29 24l-30 51q-13 21 -13 31z" />
<glyph unicode="&#xe2;" horiz-adv-x="974" d="M78 276v33q0 168 98 242q82 66 316 65h49q70 0 125 -6v86q0 96 -47.5 132t-155.5 36q-102 0 -223 -30q-33 -8 -43 -9q-20 0 -27 29l-8 39q-8 41 -8 53q0 23 28 31q139 45 297 45q199 0 287 -78t88 -270v-645q0 -29 -33 -29h-80q-33 0 -39 29l-8 59h-4q-51 -106 -246 -106 h-63q-303 -1 -303 294zM199 1202q0 8 14 27l201 233q16 18 43 19h94q27 0 43 -19l201 -233q14 -18 14 -27q0 -12 -16 -24l-48 -33q-23 -16 -35 -16.5t-28 16.5l-174 178h-8l-174 -178q-16 -16 -28.5 -16.5t-35.5 16.5l-47 33q-16 12 -16 24zM268 279q0 -78 33 -111t111 -33 h67q94 0 140.5 42t46.5 132v148q-49 6 -111 6h-90q-109 0 -153 -33t-44 -123v-28z" />
<glyph unicode="&#xe3;" horiz-adv-x="974" d="M78 276v33q0 168 98 242q82 66 316 65h49q70 0 125 -6v86q0 96 -47.5 132t-155.5 36q-102 0 -223 -30q-33 -8 -43 -9q-20 0 -27 29l-8 39q-8 41 -8 53q0 23 28 31q139 45 297 45q199 0 287 -78t88 -270v-645q0 -29 -33 -29h-80q-33 0 -39 29l-8 59h-4q-51 -106 -246 -106 h-63q-303 -1 -303 294zM172 1229q0 8 6 20q82 170 217 170q61 0 117 -39l57 -39q45 -31 76 -30q55 0 103 80q8 14 20 14q8 0 25 -10l41 -27q18 -12 18 -25q0 -8 -6 -20q-90 -162 -215 -162q-57 0 -117 37l-55 39q-45 31 -74 31q-49 0 -98 -82q-8 -18 -23 -19q-10 0 -33 15 l-43 24q-16 11 -16 23zM268 279q0 -78 33 -111t111 -33h67q94 0 140.5 42t46.5 132v148q-49 6 -111 6h-90q-109 0 -153 -33t-44 -123v-28z" />
<glyph unicode="&#xe4;" horiz-adv-x="974" d="M78 276v33q0 168 98 242q82 66 316 65h49q70 0 125 -6v86q0 96 -47.5 132t-155.5 36q-102 0 -223 -30q-33 -8 -43 -9q-20 0 -27 29l-8 39q-8 41 -8 53q0 23 28 31q139 45 297 45q199 0 287 -78t88 -270v-645q0 -29 -33 -29h-80q-33 0 -39 29l-8 59h-4q-51 -106 -246 -106 h-63q-303 -1 -303 294zM229 1286v33q0 98 99 98h20q100 0 101 -98v-33q0 -98 -101 -98h-20q-99 0 -99 98zM268 279q0 -78 33 -111t111 -33h67q94 0 140.5 42t46.5 132v148q-49 6 -111 6h-90q-109 0 -153 -33t-44 -123v-28zM563 1286v33q0 98 99 98h20q100 0 100 -98v-33 q0 -98 -100 -98h-20q-99 0 -99 98z" />
<glyph unicode="&#xe5;" horiz-adv-x="974" d="M78 276v33q0 168 98 242q82 66 316 65h49q70 0 125 -6v86q0 96 -47.5 132t-155.5 36q-102 0 -223 -30q-33 -8 -43 -9q-20 0 -27 29l-8 39q-8 41 -8 53q0 23 28 31q139 45 297 45q199 0 287 -78t88 -270v-645q0 -29 -33 -29h-80q-33 0 -39 29l-8 59h-4q-51 -106 -246 -106 h-63q-303 -1 -303 294zM268 279q0 -78 33 -111t111 -33h67q94 0 140.5 42t46.5 132v148q-49 6 -111 6h-90q-109 0 -153 -33t-44 -123v-28zM309 1298q0 84 55.5 138.5t137.5 54.5t137 -54.5t55 -138.5t-55 -138t-137 -54t-137.5 54t-55.5 138zM424 1298.5q0 -34.5 21.5 -57 t56.5 -22.5t56.5 22.5t21.5 57t-21.5 57t-56.5 22.5t-56.5 -22.5t-21.5 -57z" />
<glyph unicode="&#xe6;" horiz-adv-x="1531" d="M78 276v33q0 168 98 242q82 66 316 65h49q70 0 125 -6v86q0 96 -47.5 132t-155.5 36q-104 0 -195 -22q-66 -16 -69 -17q-23 0 -29 29l-8 39q-8 41 -8 53q0 23 28 31q139 45 297 45q223 0 299 -117q86 117 291 117q188 0 281.5 -96.5t93.5 -311.5v-149q0 -59 -58 -59h-528 q4 -152 54.5 -210.5t195.5 -58.5q119 0 217 39q25 8 33 8q16 0 24 -22l15 -49q10 -35 10 -43q0 -18 -25 -31q-125 -57 -297 -57q-262 0 -323 141q-37 -74 -108.5 -107.5t-209.5 -33.5h-63q-303 -1 -303 294zM268 279q0 -78 33 -111t111 -33h67q186 0 187 174v131v17 q-49 6 -111 6h-90q-109 0 -153 -33t-44 -123v-28zM856 559h371q27 0 26 29q0 156 -36.5 217t-151.5 61t-162 -68.5t-47 -238.5z" />
<glyph unicode="&#xe7;" horiz-adv-x="876" d="M86 471v66q0 158 24.5 241.5t84.5 141.5q104 102 307 102q174 0 305 -88q18 -12 18 -27q0 -10 -20 -49l-29 -53q-12 -20 -24 -21q-10 0 -25 9q-113 70 -219 69q-109 0 -164 -49q-33 -31 -47 -78t-16 -85t-2 -130v-33q0 -217 51 -282q55 -68 186 -68q104 0 203 37 q20 8 31 8q18 0 26 -24l12 -43q10 -33 11 -47q0 -23 -31 -35q-102 -45 -244 -51q-4 -12 -4 -23l-14 -86q31 6 65 6q66 0 110 -41t44 -123q0 -197 -240 -196q-76 0 -155 22q-20 6 -21 21q0 12 4 37l6 39q2 20 17 20q6 0 22 -4q57 -16 112.5 -16t79 15t23.5 56q0 57 -67 58 q-35 0 -70 -7q-20 -4 -22 -4q-12 0 -21 15l-16 26q-6 12 -6 23q0 8 6 39l22 127v2q-135 16 -200 82q-113 106 -113 401z" />
<glyph unicode="&#xe8;" horiz-adv-x="952" d="M86 467v70q0 250 92 367.5t309 117.5q188 0 282.5 -98.5t94.5 -311.5v-147q0 -59 -57 -59h-528q4 -152 54 -210.5t195 -58.5q119 0 217 39q25 8 33 8q16 0 25 -22l14 -49q10 -35 10 -43q0 -18 -24 -31q-125 -57 -297 -57q-236 0 -328 111.5t-92 373.5zM238 1333 q0 12 18 43l43 72q12 23 29 22q12 0 30 -10l332 -194q25 -14 25 -27q0 -10 -13 -31l-30 -51q-14 -25 -29 -24q-10 0 -35 10l-340 157q-30 15 -30 33zM276 559h379q27 0 27 29q0 152 -42 215t-157 63q-123 0 -165 -70.5t-42 -236.5z" />
<glyph unicode="&#xe9;" horiz-adv-x="952" d="M86 467v70q0 250 92 367.5t309 117.5q188 0 282.5 -98.5t94.5 -311.5v-147q0 -59 -57 -59h-528q4 -152 54 -210.5t195 -58.5q119 0 217 39q25 8 33 8q16 0 25 -22l14 -49q10 -35 10 -43q0 -18 -24 -31q-125 -57 -297 -57q-236 0 -328 111.5t-92 373.5zM276 559h379 q27 0 27 29q0 152 -42 215t-157 63q-123 0 -165 -70.5t-42 -236.5zM309 1239q0 12 25 27l332 194q18 10 30 10q16 0 29 -22l43 -72q18 -31 18 -43q0 -18 -30 -33l-340 -157q-25 -10 -35 -10q-14 0 -29 24l-30 51q-13 21 -13 31z" />
<glyph unicode="&#xea;" horiz-adv-x="952" d="M86 467v70q0 250 92 367.5t309 117.5q188 0 282.5 -98.5t94.5 -311.5v-147q0 -59 -57 -59h-528q4 -152 54 -210.5t195 -58.5q119 0 217 39q25 8 33 8q16 0 25 -22l14 -49q10 -35 10 -43q0 -18 -24 -31q-125 -57 -297 -57q-236 0 -328 111.5t-92 373.5zM176 1202 q0 8 14 27l201 233q16 18 43 19h94q27 0 43 -19l201 -233q14 -18 14 -27q0 -12 -16 -24l-47 -33q-23 -16 -35 -16.5t-29 16.5l-174 178h-8l-174 -178q-16 -16 -28.5 -16.5t-34.5 16.5l-47 33q-17 12 -17 24zM276 559h379q27 0 27 29q0 152 -42 215t-157 63 q-123 0 -165 -70.5t-42 -236.5z" />
<glyph unicode="&#xeb;" horiz-adv-x="952" d="M86 467v70q0 250 92 367.5t309 117.5q188 0 282.5 -98.5t94.5 -311.5v-147q0 -59 -57 -59h-528q4 -152 54 -210.5t195 -58.5q119 0 217 39q25 8 33 8q16 0 25 -22l14 -49q10 -35 10 -43q0 -18 -24 -31q-125 -57 -297 -57q-236 0 -328 111.5t-92 373.5zM203 1286v33 q0 98 98 98h21q100 0 100 -98v-33q0 -98 -100 -98h-21q-98 0 -98 98zM276 559h379q27 0 27 29q0 152 -42 215t-157 63q-123 0 -165 -70.5t-42 -236.5zM537 1286v33q0 98 98 98h20q100 0 101 -98v-33q0 -98 -101 -98h-20q-98 0 -98 98z" />
<glyph unicode="&#xec;" horiz-adv-x="479" d="M-78 1331q0 12 19 43l43 72q12 23 28 22q12 0 31 -10l332 -194q25 -14 24 -27q0 -8 -12 -31l-31 -51q-14 -25 -28 -25q-10 0 -35 11l-340 157q-31 17 -31 33zM145 37v930q0 37 41 37h107q23 0 32 -8.5t9 -28.5v-930q0 -20 -9.5 -28.5t-31.5 -8.5h-107q-41 0 -41 37z" />
<glyph unicode="&#xed;" horiz-adv-x="479" d="M92 1239q0 12 25 27l332 194q18 10 30 10q16 0 29 -22l43 -72q18 -31 18 -43q0 -18 -30 -33l-340 -157q-25 -10 -35 -10q-14 0 -29 24l-31 51q-12 21 -12 31zM145 37v930q0 37 41 37h107q23 0 32 -8.5t9 -28.5v-930q0 -20 -9.5 -28.5t-31.5 -8.5h-107q-41 0 -41 37z" />
<glyph unicode="&#xee;" horiz-adv-x="479" d="M-68 1202q0 8 15 27l200 233q16 18 43 19h95q27 0 43 -19l200 -233q14 -18 15 -27q0 -12 -17 -24l-47 -33q-23 -16 -35 -16.5t-28 16.5l-174 178h-9l-174 -178q-16 -16 -28.5 -16.5t-34.5 16.5l-47 33q-17 12 -17 24zM145 37v930q0 37 41 37h107q23 0 32 -8.5t9 -28.5 v-930q0 -20 -9.5 -28.5t-31.5 -8.5h-107q-41 0 -41 37z" />
<glyph unicode="&#xef;" horiz-adv-x="479" d="M-39 1286v33q0 98 98 98h21q100 0 100 -98v-33q0 -98 -100 -98h-21q-98 0 -98 98zM145 37v930q0 37 41 37h107q23 0 32 -8.5t9 -28.5v-930q0 -20 -9.5 -28.5t-31.5 -8.5h-107q-41 0 -41 37zM295 1286v33q0 98 98 98h21q100 0 100 -98v-33q0 -98 -100 -98h-21 q-98 0 -98 98z" />
<glyph unicode="&#xf0;" horiz-adv-x="1064" d="M86 418v96q0 434 391 434q139 0 223 -63l5 4q-47 168 -203 295l-125 -117q-12 -12 -20.5 -12t-22.5 14l-39 43q-14 14 -14 22.5t12 20.5l104 96q-45 27 -125 64q-18 8 -18 20q0 8 6 21l43 76q8 16 23 16q8 0 20 -4q98 -43 168 -84l109 100q12 12 20 13q12 0 21 -13 l45 -49q10 -10 10 -18.5t-14 -22.5l-87 -78q319 -252 320 -751v-105q-2 -225 -100.5 -339.5t-329.5 -114.5q-219 0 -320.5 105.5t-101.5 330.5zM279 434q0 -156 51 -226.5t184 -70.5q125 0 178 72t53 209v86q0 287 -229 287q-129 0 -183 -70t-54 -215v-72z" />
<glyph unicode="&#xf1;" horiz-adv-x="1054" d="M131 37v936q0 31 33 31h72q35 0 38 -31l11 -66h4q94 115 291 115q180 0 267 -94t87 -310v-581q0 -20 -9.5 -28.5t-31.5 -8.5h-107q-41 0 -41 37v590q0 129 -49 185t-166 56q-106 0 -158.5 -48t-52.5 -165v-618q0 -20 -9 -28.5t-31 -8.5h-107q-41 0 -41 37zM209 1229 q0 8 6 20q82 170 217 170q61 0 117 -39l57 -39q45 -31 76 -30q55 0 102 80q8 14 21 14q8 0 24 -10l41 -27q18 -12 19 -25q0 -8 -6 -20q-90 -162 -215 -162q-57 0 -117 37l-55 39q-45 31 -74 31q-49 0 -98 -82q-8 -18 -23 -19q-10 0 -33 15l-43 24q-16 11 -16 23z" />
<glyph unicode="&#xf2;" horiz-adv-x="999" d="M86 467v70q0 279 102 381q104 104 311.5 104t311.5 -104q102 -102 102 -381v-70q0 -279 -102 -381q-104 -104 -311 -104t-312 104q-102 102 -102 381zM252 1333q0 12 18 43l43 72q12 23 29 22q12 0 31 -10l332 -194q25 -14 24 -27q0 -10 -12 -31l-31 -51q-14 -25 -29 -24 q-10 0 -34 10l-340 157q-31 15 -31 33zM279 481q0 -180 32 -252q43 -96 188.5 -96t188.5 96q33 72 33 252v2v2v2v2v5v2v2v4v2v18q0 180 -33 252q-43 96 -188.5 96t-188.5 -96q-33 -72 -32 -252v-2v-2v-2v-2v-2v-2v-4v-2v-4v-19z" />
<glyph unicode="&#xf3;" horiz-adv-x="999" d="M86 467v70q0 279 102 381q104 104 311.5 104t311.5 -104q102 -102 102 -381v-70q0 -279 -102 -381q-104 -104 -311 -104t-312 104q-102 102 -102 381zM279 481q0 -180 32 -252q43 -96 188.5 -96t188.5 96q33 72 33 252v2v2v2v2v5v2v2v4v2v18q0 180 -33 252 q-43 96 -188.5 96t-188.5 -96q-33 -72 -32 -252v-2v-2v-2v-2v-2v-2v-4v-2v-4v-19zM311 1239q0 12 25 27l332 194q18 10 30 10q16 0 29 -22l43 -72q18 -31 18 -43q0 -18 -30 -33l-340 -157q-25 -10 -35 -10q-14 0 -29 24l-30 51q-13 21 -13 31z" />
<glyph unicode="&#xf4;" horiz-adv-x="999" d="M86 467v70q0 279 102 381q104 104 311.5 104t311.5 -104q102 -102 102 -381v-70q0 -279 -102 -381q-104 -104 -311 -104t-312 104q-102 102 -102 381zM193 1202q0 8 14 27l201 233q16 18 43 19h94q27 0 43 -19l200 -233q14 -18 15 -27q0 -12 -17 -24l-47 -33 q-23 -16 -35 -16.5t-28 16.5l-174 178h-8l-175 -178q-16 -16 -28 -16.5t-35 16.5l-47 33q-16 12 -16 24zM279 481q0 -180 32 -252q43 -96 188.5 -96t188.5 96q33 72 33 252v2v2v2v2v5v2v2v4v2v18q0 180 -33 252q-43 96 -188.5 96t-188.5 -96q-33 -72 -32 -252v-2v-2v-2v-2 v-2v-2v-4v-2v-4v-19z" />
<glyph unicode="&#xf5;" horiz-adv-x="999" d="M86 467v70q0 279 102 381q104 104 311.5 104t311.5 -104q102 -102 102 -381v-70q0 -279 -102 -381q-104 -104 -311 -104t-312 104q-102 102 -102 381zM160 1229q0 8 6 20q82 170 217 170q61 0 117 -39l57 -39q45 -31 76 -30q55 0 102 80q8 14 21 14q8 0 24 -10l41 -27 q18 -12 19 -25q0 -8 -6 -20q-90 -162 -216 -162q-57 0 -116 37l-56 39q-45 31 -73 31q-49 0 -99 -82q-8 -18 -22 -19q-10 0 -33 15l-43 24q-16 11 -16 23zM279 481q0 -180 32 -252q43 -96 188.5 -96t188.5 96q33 72 33 252v2v2v2v2v5v2v2v4v2v18q0 180 -33 252 q-43 96 -188.5 96t-188.5 -96q-33 -72 -32 -252v-2v-2v-2v-2v-2v-2v-4v-2v-4v-19z" />
<glyph unicode="&#xf6;" horiz-adv-x="999" d="M86 467v70q0 279 102 381q104 104 311.5 104t311.5 -104q102 -102 102 -381v-70q0 -279 -102 -381q-104 -104 -311 -104t-312 104q-102 102 -102 381zM223 1286v33q0 98 99 98h20q100 0 100 -98v-33q0 -98 -100 -98h-20q-99 0 -99 98zM279 481q0 -180 32 -252 q43 -96 188.5 -96t188.5 96q33 72 33 252v2v2v2v2v5v2v2v4v2v18q0 180 -33 252q-43 96 -188.5 96t-188.5 -96q-33 -72 -32 -252v-2v-2v-2v-2v-2v-2v-4v-2v-4v-19zM557 1286v33q0 98 98 98h21q100 0 100 -98v-33q0 -98 -100 -98h-21q-98 0 -98 98z" />
<glyph unicode="&#xf7;" d="M92 489v84q0 47 49 48h801q49 0 49 -48v-84q0 -27 -11 -37t-38 -10h-801q-27 0 -38 10t-11 37zM414 145v43q0 106 116 107h15q115 0 114 -107v-43q0 -106 -114 -106h-15q-116 0 -116 106zM414 874v44q0 106 116 106h15q115 0 114 -106v-44q0 -106 -114 -106h-15 q-116 0 -116 106z" />
<glyph unicode="&#xf8;" horiz-adv-x="999" d="M86 467v70q0 279 102 381q104 104 312 104q111 0 192 -31l62 113q14 29 30 29q6 0 31 -13l37 -20q20 -10 20 -23q0 -8 -26 -59l-47 -88l12 -12q102 -102 102 -381v-70q0 -279 -102 -381q-104 -104 -311 -104q-109 0 -191 28l-55 -102q-14 -29 -31 -29q-6 0 -30 12l-37 21 q-20 10 -21 22q0 8 27 60l41 78q-2 2 -5 4t-5.5 5t-4.5 5q-102 102 -102 381zM279 481q0 -160 22 -227l315 594q-49 23 -116 22q-145 0 -189 -96q-33 -72 -32 -252v-41zM385 154q43 -20 115 -21q145 0 188 96q33 72 33 252v41q0 147 -23 221z" />
<glyph unicode="&#xf9;" horiz-adv-x="1021" d="M121 301v666q0 37 41 37h106q23 0 32 -8.5t9 -28.5v-635q0 -113 47 -152q49 -41 155.5 -41t158.5 45q43 37 43 148v635q0 37 41 37h106q23 0 32 -8.5t9 -30.5v-664q0 -174 -104 -250q-90 -70 -285 -69.5t-287 69.5q-104 76 -104 250zM219 1333q0 12 19 43l43 72 q12 23 28 22q12 0 31 -10l332 -194q25 -14 24 -27q0 -10 -12 -31l-31 -51q-14 -25 -28 -24q-10 0 -35 10l-340 157q-31 15 -31 33z" />
<glyph unicode="&#xfa;" horiz-adv-x="1021" d="M121 301v666q0 37 41 37h106q23 0 32 -8.5t9 -28.5v-635q0 -113 47 -152q49 -41 155.5 -41t158.5 45q43 37 43 148v635q0 37 41 37h106q23 0 32 -8.5t9 -30.5v-664q0 -174 -104 -250q-90 -70 -285 -69.5t-287 69.5q-104 76 -104 250zM336 1239q0 12 24 27l332 194 q18 10 31 10q16 0 29 -22l43 -72q18 -31 18 -43q0 -18 -31 -33l-340 -157q-25 -10 -34 -10q-14 0 -29 24l-31 51q-12 21 -12 31z" />
<glyph unicode="&#xfb;" horiz-adv-x="1021" d="M121 301v666q0 37 41 37h106q23 0 32 -8.5t9 -28.5v-635q0 -113 47 -152q49 -41 155.5 -41t158.5 45q43 37 43 148v635q0 37 41 37h106q23 0 32 -8.5t9 -30.5v-664q0 -174 -104 -250q-90 -70 -285 -69.5t-287 69.5q-104 76 -104 250zM209 1202q0 8 14 27l201 233 q16 18 43 19h94q27 0 43 -19l201 -233q14 -18 14 -27q0 -12 -16 -24l-47 -33q-23 -16 -35 -16.5t-29 16.5l-174 178h-8l-174 -178q-16 -16 -28.5 -16.5t-35.5 16.5l-47 33q-16 12 -16 24z" />
<glyph unicode="&#xfc;" horiz-adv-x="1021" d="M121 301v666q0 37 41 37h106q23 0 32 -8.5t9 -28.5v-635q0 -113 47 -152q49 -41 155.5 -41t158.5 45q43 37 43 148v635q0 37 41 37h106q23 0 32 -8.5t9 -30.5v-664q0 -174 -104 -250q-90 -70 -285 -69.5t-287 69.5q-104 76 -104 250zM238 1286v33q0 98 98 98h20 q100 0 101 -98v-33q0 -98 -101 -98h-20q-98 0 -98 98zM571 1286v33q0 98 99 98h20q100 0 101 -98v-33q0 -98 -101 -98h-20q-99 0 -99 98z" />
<glyph unicode="&#xfd;" horiz-adv-x="899" d="M35 979q0 25 33 25h116q35 0 41 -31q86 -432 174 -690q20 -61 32.5 -83t29.5 -22h8q135 399 209 795q6 31 41 31h121q29 0 28 -21q0 -12 -14 -76q-76 -328 -167 -609.5t-255 -653.5q-14 -31 -29 -31q-16 0 -55 16l-55 23q-33 12 -33 29q0 10 25 59q68 137 118 264 q-92 18 -141 148q-117 305 -213 737q-14 72 -14 90zM299 1239q0 12 25 27l331 194q18 10 31 10q16 0 29 -22l43 -72q18 -31 18 -43q0 -18 -31 -33l-339 -157q-25 -10 -35 -10q-14 0 -29 24l-31 51q-12 21 -12 31z" />
<glyph unicode="&#xfe;" horiz-adv-x="1050" d="M131 -326v1676q0 37 41 36h107q23 0 31.5 -8t8.5 -28v-412q96 84 269 84q197 0 287 -104.5t90 -362.5v-92q0 -248 -88.5 -364.5t-303.5 -116.5q-170 0 -251 81h-3v-389q0 -20 -9 -28t-31 -8h-107q-41 -1 -41 36zM319 358q0 -117 56.5 -169t171.5 -52q131 0 178 73t47 259 v68q0 186 -47 256.5t-180 70.5q-125 0 -175.5 -53t-50.5 -174v-279z" />
<glyph unicode="&#xff;" horiz-adv-x="899" d="M35 979q0 25 33 25h116q35 0 41 -31q86 -432 174 -690q20 -61 32.5 -83t29.5 -22h8q135 399 209 795q6 31 41 31h121q29 0 28 -21q0 -12 -14 -76q-76 -328 -167 -609.5t-255 -653.5q-14 -31 -29 -31q-16 0 -55 16l-55 23q-33 12 -33 29q0 10 25 59q68 137 118 264 q-92 18 -141 148q-117 305 -213 737q-14 72 -14 90zM182 1286v33q0 98 99 98h20q100 0 100 -98v-33q0 -98 -100 -98h-20q-99 0 -99 98zM516 1286v33q0 98 98 98h21q100 0 100 -98v-33q0 -98 -100 -98h-21q-98 0 -98 98z" />
<glyph unicode="&#x152;" horiz-adv-x="1742" d="M104 614v95q0 326 113 480t389 154q174 0 312 -94q47 76 221 76h477q25 0 33 -8t8 -33v-82q0 -23 -8.5 -32t-32.5 -9h-455q-86 0 -92 -76q-10 -133 -10 -321h475q25 0 33 -8t8 -31v-84q0 -20 -8 -29.5t-33 -9.5h-475q0 -254 14 -369q4 -39 24.5 -55t61.5 -16h455 q27 0 35 -8.5t8 -30.5v-84q0 -23 -8.5 -31t-34.5 -8h-475q-174 0 -228 80q-117 -98 -311 -98q-272 0 -384 154t-112 478zM311 637q0 -92 4 -153.5t21.5 -131t49.5 -110.5t89 -68t139 -27q176 0 265 93q-16 174 -17 368v121q0 231 10 356q-90 90 -266 91q-78 0 -133 -27 t-87 -67t-48 -108.5t-21.5 -132t-5.5 -155.5v-49z" />
<glyph unicode="&#x153;" horiz-adv-x="1589" d="M86 467v70q0 279 102 381q104 104 312 104q217 0 317 -119q98 119 309 119q188 0 281.5 -96.5t93.5 -311.5v-149q0 -59 -57 -59h-529q4 -152 54.5 -210.5t195.5 -58.5q119 0 217 39q25 8 33 8q16 0 25 -22l14 -49q10 -35 10 -43q0 -18 -24 -31q-125 -57 -297 -57 q-240 0 -334 124q-41 -57 -124 -90.5t-185 -33.5q-207 0 -312 104q-102 102 -102 381zM279 481q0 -180 32 -252q43 -96 188.5 -96t188.5 96q33 72 33 252v41q0 180 -33 252q-43 96 -188.5 96t-188.5 -96q-33 -72 -32 -252v-41zM913 559h371q27 0 27 29q0 156 -37 217 t-151.5 61t-162 -68.5t-47.5 -238.5z" />
<glyph unicode="&#x178;" horiz-adv-x="978" d="M31 1300q0 25 43 25h98q43 0 53 -35q90 -342 258 -686h13q162 330 258 686q10 35 53 35h98q43 0 43 -25q0 -14 -14 -61q-135 -438 -344 -809v-389q0 -25 -9.5 -33t-35.5 -8h-111q-27 0 -36 8t-9 33v389q-205 360 -344 809q-14 47 -14 61zM213 1579v33q0 98 98 98h21 q100 0 100 -98v-33q0 -98 -100 -98h-21q-98 0 -98 98zM547 1579v33q0 98 98 98h21q100 0 100 -98v-33q0 -98 -100 -98h-21q-98 0 -98 98z" />
<glyph unicode="&#x2c6;" horiz-adv-x="757" d="M74 1202q0 8 14 27l201 233q16 18 43 19h94q27 0 43 -19l201 -233q14 -18 14 -27q0 -12 -16 -24l-47 -33q-23 -16 -35.5 -16.5t-28.5 16.5l-174 178h-8l-174 -178q-16 -16 -28.5 -16.5t-35.5 16.5l-47 33q-16 12 -16 24z" />
<glyph unicode="&#x2dc;" horiz-adv-x="790" d="M55 1229q0 8 6 20q82 170 218 170q61 0 116 -39l58 -39q47 -31 75 -30q55 0 103 80q8 14 20 14q8 0 25 -10l41 -27q18 -12 18 -25q0 -8 -6 -20q-90 -162 -215 -162q-59 0 -117 37l-55 39q-47 31 -74 31q-49 0 -98 -82q-10 -18 -23 -19q-10 0 -32 15l-43 24q-17 11 -17 23 z" />
<glyph unicode="&#x2000;" horiz-adv-x="899" />
<glyph unicode="&#x2001;" horiz-adv-x="1798" />
<glyph unicode="&#x2002;" horiz-adv-x="899" />
<glyph unicode="&#x2003;" horiz-adv-x="1798" />
<glyph unicode="&#x2004;" horiz-adv-x="598" />
<glyph unicode="&#x2005;" horiz-adv-x="448" />
<glyph unicode="&#x2006;" horiz-adv-x="299" />
<glyph unicode="&#x2007;" horiz-adv-x="299" />
<glyph unicode="&#x2008;" horiz-adv-x="223" />
<glyph unicode="&#x2009;" horiz-adv-x="358" />
<glyph unicode="&#x200a;" horiz-adv-x="98" />
<glyph unicode="&#x2010;" horiz-adv-x="645" d="M72 483v92q0 27 10 36.5t37 9.5h407q27 0 37 -9.5t10 -36.5v-92q0 -41 -47 -41h-407q-47 0 -47 41z" />
<glyph unicode="&#x2011;" horiz-adv-x="645" d="M72 483v92q0 27 10 36.5t37 9.5h407q27 0 37 -9.5t10 -36.5v-92q0 -41 -47 -41h-407q-47 0 -47 41z" />
<glyph unicode="&#x2012;" horiz-adv-x="645" d="M72 483v92q0 27 10 36.5t37 9.5h407q27 0 37 -9.5t10 -36.5v-92q0 -41 -47 -41h-407q-47 0 -47 41z" />
<glyph unicode="&#x2013;" horiz-adv-x="1024" d="M0 483v92q0 27 10 36.5t37 9.5h930q27 0 37 -9.5t10 -36.5v-92q0 -41 -47 -41h-930q-47 0 -47 41z" />
<glyph unicode="&#x2014;" horiz-adv-x="2048" d="M0 483v92q0 27 10 36.5t37 9.5h1954q27 0 37 -9.5t10 -36.5v-92q0 -41 -47 -41h-1954q-47 0 -47 41z" />
<glyph unicode="&#x2018;" horiz-adv-x="452" d="M92 1036v19q0 86 41 190q49 119 115 189q12 16 24 16q14 0 33 -12l43 -27q18 -12 19 -25q0 -8 -11 -22q-70 -90 -88 -156q-8 -31 13 -43l30 -16q41 -23 41 -92v-49q0 -98 -110 -99h-31q-61 0 -90 29.5t-29 97.5z" />
<glyph unicode="&#x2019;" horiz-adv-x="452" d="M86 973q0 8 10 22q70 90 88 156q8 31 -12 43l-31 16q-41 23 -41 93v49q0 98 111 98h31q61 0 89.5 -29.5t28.5 -97.5v-18q0 -86 -41 -191q-49 -119 -114 -188q-12 -16 -25 -17q-14 0 -33 13l-43 26q-18 13 -18 25z" />
<glyph unicode="&#x201a;" horiz-adv-x="452" d="M86 -248q0 8 10 23q70 90 88 155q8 31 -12 43l-31 17q-41 23 -41 92v49q0 98 111 98h31q61 0 89.5 -29.5t28.5 -97.5v-18q0 -86 -41 -190q-49 -119 -114 -189q-12 -16 -25 -16q-14 0 -33 12l-43 27q-18 12 -18 24z" />
<glyph unicode="&#x201c;" horiz-adv-x="833" d="M92 1036v19q0 86 41 190q49 119 115 189q12 16 24 16q14 0 33 -12l43 -27q18 -12 19 -25q0 -8 -11 -22q-70 -90 -88 -156q-8 -31 13 -43l30 -16q41 -23 41 -92v-49q0 -98 -110 -99h-31q-61 0 -90 29.5t-29 97.5zM473 1036v19q0 86 41 190q49 119 115 189q12 16 24 16 q14 0 33 -12l43 -27q18 -12 19 -25q0 -8 -11 -22q-70 -90 -88 -156q-8 -31 13 -43l30 -16q41 -23 41 -92v-49q0 -98 -110 -99h-31q-61 0 -90 29.5t-29 97.5z" />
<glyph unicode="&#x201d;" horiz-adv-x="833" d="M86 973q0 8 10 22q70 90 88 156q8 31 -12 43l-31 16q-41 23 -41 93v49q0 98 111 98h31q61 0 89.5 -29.5t28.5 -97.5v-18q0 -86 -41 -191q-49 -119 -114 -188q-12 -16 -25 -17q-14 0 -33 13l-43 26q-18 13 -18 25zM467 973q0 8 10 22q70 90 88 156q8 31 -12 43l-31 16 q-41 23 -41 93v49q0 98 111 98h31q61 0 89.5 -29.5t28.5 -97.5v-18q0 -86 -41 -191q-49 -119 -114 -188q-12 -16 -25 -17q-14 0 -33 13l-43 26q-18 13 -18 25z" />
<glyph unicode="&#x201e;" horiz-adv-x="833" d="M86 -248q0 8 10 23q70 90 88 155q8 31 -12 43l-31 17q-41 23 -41 92v49q0 98 111 98h31q61 0 89.5 -29.5t28.5 -97.5v-18q0 -86 -41 -190q-49 -119 -114 -189q-12 -16 -25 -16q-14 0 -33 12l-43 27q-18 12 -18 24zM467 -248q0 8 10 23q70 90 88 155q8 31 -12 43l-31 17 q-41 23 -41 92v49q0 98 111 98h31q61 0 89.5 -29.5t28.5 -97.5v-18q0 -86 -41 -190q-49 -119 -114 -189q-12 -16 -25 -16q-14 0 -33 12l-43 27q-18 12 -18 24z" />
<glyph unicode="&#x2022;" horiz-adv-x="694" d="M102 534.5q0 102.5 71 174t173.5 71.5t174 -71.5t71.5 -174t-71.5 -174t-174 -71.5t-173.5 71.5t-71 174z" />
<glyph unicode="&#x2026;" horiz-adv-x="1271" d="M92 90v33q0 53 30 80.5t79 27.5h22q109 0 109 -108v-33q0 -109 -109 -108h-22q-49 0 -79 27.5t-30 80.5zM516 90v33q0 53 29.5 80.5t79.5 27.5h22q109 0 109 -108v-33q0 -109 -109 -108h-22q-49 0 -79 27.5t-30 80.5zM940 90v33q0 53 29.5 80.5t79.5 27.5h22 q109 0 109 -108v-33q0 -109 -109 -108h-22q-49 0 -79 27.5t-30 80.5z" />
<glyph unicode="&#x202f;" horiz-adv-x="358" />
<glyph unicode="&#x2039;" horiz-adv-x="622" d="M76 467v16q0 41 28 64l297 246q33 27 52 26q16 0 34 -16l33 -31q31 -29 31 -49q0 -18 -23 -37l-225 -211l225 -209q23 -18 23 -37q0 -20 -31 -49l-33 -30q-18 -16 -34 -17q-18 0 -52 27l-297 243q-28 23 -28 64z" />
<glyph unicode="&#x203a;" horiz-adv-x="622" d="M72 229q0 18 22 37l225 209l-225 211q-23 18 -22 37q0 20 30 49l33 31q18 16 35 16q18 0 51 -26l297 -246q29 -23 29 -64v-16q0 -41 -29 -64l-297 -243q-33 -27 -51 -27q-16 0 -35 17l-33 30q-30 29 -30 49z" />
<glyph unicode="&#x205f;" horiz-adv-x="448" />
<glyph unicode="&#x20ac;" d="M47 459v67q0 23 7 31t30 8h131v142h-131q-23 0 -30 8t-7 30v68q0 23 7 31t30 8h137q18 256 133 373.5t340 117.5q190 0 346 -86q27 -16 27 -34.5t-27 -63.5l-24 -43q-12 -20 -27 -20q-16 0 -39 14q-123 70 -256 70q-129 0 -191.5 -71t-74.5 -257h408q23 0 29.5 -8 t6.5 -31v-68q0 -23 -7 -30.5t-29 -7.5h-414v-142h414q23 0 29.5 -8t6.5 -31v-67q0 -23 -7 -31t-29 -8h-404q18 -143 83 -209t214 -66q133 0 236 37q31 10 39 11q18 0 26 -29l10 -39q12 -51 12.5 -65.5t-26.5 -24.5q-135 -53 -305 -53q-248 0 -360.5 102t-137.5 336h-139 q-23 0 -30 8t-7 31z" />
<glyph unicode="&#x2122;" horiz-adv-x="1480" d="M66 1235v72q0 27 28 26h443q29 0 28 -26v-72q0 -27 -28 -27h-148v-473q0 -18 -6 -24t-27 -6h-86q-20 0 -26 6t-6 24v473h-144q-28 0 -28 27zM612 733q8 276 31 549q4 51 53 51h133q31 0 43.5 -9t20.5 -38q55 -221 98 -368h8q80 295 99 368q8 29 20 38t43 9h133 q49 0 54 -51q23 -272 30 -549q0 -29 -35 -28h-81q-35 0 -35 28q-6 262 -17 457h-6q-82 -299 -108 -383q-6 -23 -17.5 -30t-40.5 -7h-86q-29 0 -40 7t-17 30q-27 84 -109 383h-6q-10 -195 -16 -457q0 -29 -35 -28h-82q-35 -1 -35 28z" />
<glyph unicode="&#xe000;" horiz-adv-x="1004" d="M0 1005h1005v-1005h-1005v1005z" />
<glyph unicode="&#xfb01;" horiz-adv-x="1091" d="M33 877v63q0 31 30 35l119 22v72q0 178 101.5 256t304.5 78q145 0 254 -31q27 -8 26 -26q0 -14 -10 -62l-8 -39q-4 -25 -27 -24q-8 0 -43 6q-109 20 -188 20q-123 0 -172 -40t-49 -148v-55h534q23 0 31 -8.5t8 -28.5v-930q0 -20 -9 -28.5t-32 -8.5h-106q-41 0 -41 37v805 h-385v-805q0 -20 -9.5 -28.5t-31.5 -8.5h-107q-41 0 -41 37v805h-114q-20 0 -27.5 7.5t-7.5 27.5z" />
<glyph unicode="&#xfb02;" horiz-adv-x="1175" d="M33 874v66q0 31 30 35l119 22v72q0 174 93.5 255t279.5 81q117 0 229 -31l123 12q23 2 32 -6t9 -28v-1082q0 -61 16.5 -85.5t67.5 -24.5h51q18 0 26.5 -7.5t8.5 -27.5v-88q0 -37 -33 -37h-88q-129 0 -183 55.5t-54 186.5v981q-68 27 -176 26q-121 0 -167 -41t-46 -147 v-57h204q35 0 35 -33v-99q0 -31 -35 -30h-204v-805q0 -20 -9.5 -28.5t-31.5 -8.5h-107q-41 0 -41 37v805h-116q-33 -1 -33 32z" />
<glyph unicode="&#xfb03;" horiz-adv-x="1757" d="M1395 1253v15q0 59 32.5 88.5t86.5 29.5h10q117 0 116 -118v-15q0 -119 -116 -118h-10q-53 0 -86 29.5t-33 88.5zM1423 37v930q0 37 41 37h107q23 0 32 -8.5t9 -28.5v-930q0 -20 -9.5 -28.5t-31.5 -8.5h-107q-41 0 -41 37zM672 874v66q0 29 30 35l119 22v72q0 170 72 248 q82 88 258 88q106 0 180 -21q27 -8 27 -24q0 -18 -10 -76l-4 -24q-4 -31 -52 -23q-66 10 -121 10q-76 0 -114 -30q-47 -37 -47 -156v-57h204q35 0 35 -33v-99q0 -31 -35 -30h-204v-805q0 -20 -9.5 -28.5t-31.5 -8.5h-107q-41 0 -41 37v805h-119q-30 -1 -30 32zM33 874v66 q0 29 30 35l119 22v72q0 170 72 248q82 88 258 88q106 0 180 -21q27 -8 27 -24q0 -18 -10 -76l-4 -24q-4 -31 -52 -23q-66 10 -121 10q-76 0 -114 -30q-47 -37 -47 -156v-57h204q35 0 35 -33v-99q0 -31 -35 -30h-204v-805q0 -20 -9.5 -28.5t-31.5 -8.5h-107q-41 0 -41 37 v805h-119q-30 -1 -30 32z" />
<glyph unicode="&#xfb04;" horiz-adv-x="1826" d="M1411 242v1108q0 37 41 36h107q23 0 32 -8t9 -28v-1080q0 -61 16 -85.5t68 -24.5h51q18 0 26.5 -7.5t8.5 -27.5v-88q0 -37 -33 -37h-88q-129 0 -183.5 55.5t-54.5 186.5zM672 874v66q0 29 30 35l119 22v72q0 170 72 248q82 88 258 88q106 0 180 -21q27 -8 27 -24 q0 -18 -10 -76l-4 -24q-4 -31 -52 -23q-66 10 -121 10q-76 0 -114 -30q-47 -37 -47 -156v-57h204q35 0 35 -33v-99q0 -31 -35 -30h-204v-805q0 -20 -9.5 -28.5t-31.5 -8.5h-107q-41 0 -41 37v805h-119q-30 -1 -30 32zM33 874v66q0 29 30 35l119 22v72q0 170 72 248 q82 88 258 88q106 0 180 -21q27 -8 27 -24q0 -18 -10 -76l-4 -24q-4 -31 -52 -23q-66 10 -121 10q-76 0 -114 -30q-47 -37 -47 -156v-57h204q35 0 35 -33v-99q0 -31 -35 -30h-204v-805q0 -20 -9.5 -28.5t-31.5 -8.5h-107q-41 0 -41 37v805h-119q-30 -1 -30 32z" />
<glyph horiz-adv-x="458" />
</font>
</defs>
</svg>
